0
SECTION
2
HEADER
9
$INSUNITS
70
4
9
$ACADVER
1
AC1014
9
$HANDSEED
5
FFFF
0
ENDSEC
0
SECTION
2
TABLES
0
TABLE
2
VPORT
5
8
100
AcDbSymbolTable
0
ENDTAB
0
TABLE
2
LTYPE
5
5
100
AcDbSymbolTable
0
LTYPE
5
14
100
AcDbSymbolTableRecord
100
AcDbLinetypeTableRecord
2
BYBLOCK
70
0
0
LTYPE
5
15
100
AcDbSymbolTableRecord
100
AcDbLinetypeTableRecord
2
BYLAYER
70
0
0
ENDTAB
0
TABLE
2
LAYER
5
2
100
AcDbSymbolTable
70
2
0
LAYER
5
50
100
AcDbSymbolTableRecord
100
AcDbLayerTableRecord
2
0
70
0
6
CONTINUOUS
0
ENDTAB
0
TABLE
2
STYLE
5
3
100
AcDbSymbolTable
70
1
0
STYLE
5
11
100
AcDbSymbolTableRecord
100
AcDbTextStyleTableRecord
2
STANDARD
70
0
0
ENDTAB
0
TABLE
2
VIEW
5
6
100
AcDbSymbolTable
70
0
0
ENDTAB
0
TABLE
2
UCS
5
7
100
AcDbSymbolTable
70
0
0
ENDTAB
0
TABLE
2
APPID
5
9
100
AcDbSymbolTable
70
2
0
APPID
5
12
100
AcDbSymbolTableRecord
100
AcDbRegAppTableRecord
2
ACAD
70
0
0
ENDTAB
0
TABLE
2
DIMSTYLE
5
A
100
AcDbSymbolTable
70
1
0
ENDTAB
0
TABLE
2
BLOCK_RECORD
5
1
100
AcDbSymbolTable
70
1
0
BLOCK_RECORD
5
1F
100
AcDbSymbolTableRecord
100
AcDbBlockTableRecord
2
*MODEL_SPACE
0
BLOCK_RECORD
5
1B
100
AcDbSymbolTableRecord
100
AcDbBlockTableRecord
2
*PAPER_SPACE
0
ENDTAB
0
ENDSEC
0
SECTION
2
BLOCKS
0
BLOCK
5
20
100
AcDbEntity
100
AcDbBlockBegin
2
*MODEL_SPACE
0
ENDBLK
5
21
100
AcDbEntity
100
AcDbBlockEnd
0
BLOCK
5
1C
100
AcDbEntity
100
AcDbBlockBegin
2
*PAPER_SPACE
0
ENDBLK
5
1D
100
AcDbEntity
100
AcDbBlockEnd
0
ENDSEC
0
SECTION
2
ENTITIES
0
LWPOLYLINE
5
100
100
AcDbEntity
8
0
100
AcDbPolyline
90
7
70
1
43
0.0
10
14.518435039996708
20
14.842319170080447
42
0.41421356237309503
10
15.518435039996563
20
15.842319170080341
10
15.518435039996561
20
18.766320936445268
42
0.41421356237308982
10
14.51843503999671
20
19.766320936445329
42
0.41421356237309503
10
13.51843503999655
20
18.766320936445268
10
13.51843503999655
20
16.17181917008033
10
13.51843503999655
20
15.842319170080341
42
0.4142135623730957
0
CIRCLE
5
101
100
AcDbEntity
8
0
100
AcDbCircle
10
29.654079023366322
20
4.9318121588635151
30
0
40
1.5
210
0
220
0
230
1
0
LWPOLYLINE
5
102
100
AcDbEntity
8
0
100
AcDbPolyline
90
34
70
1
43
0.0
10
9.6489467268946303
20
59.33380662254195
42
0.597051253405666
10
25.38792335308813
20
59.333806622515098
42
0.063087838630012799
10
25.749890107709746
20
60.27179219811557
42
-0.16163050322613687
10
26.109579544438752
20
60.841988458678706
42
0.048190371581546931
10
27.245028552561628
20
61.954839272420095
42
-0.22557162767676645
10
28.42128139330114
20
62.479349569595158
42
-0.10977857823693689
10
33.126348500653236
20
61.304227136350669
42
-0.36344927791073284
10
33.805197795748327
20
54.919389717323611
42
0.13833876784801405
10
33.805197795731338
20
7.7189635608712495
42
-0.36344927791073434
10
33.126348500668712
20
1.3341261418535066
42
-0.1097785782369345
10
28.421281393296841
20
0.15900370859991853
42
-0.22557162767675706
10
27.245028552557507
20
0.68351400577483234
42
0.048190371581545918
10
26.109579544434514
20
1.7963648195163202
42
-0.036250873682793325
10
25.99726672898592
20
1.903113916736451
42
0.02077884342258119
10
25.763584475024707
20
2.1393931286115091
42
-0.20829224313605096
10
25.125943157251509
20
3.6036263139262612
10
25.125943157256422
20
8.1918121588770063
42
0.41421356237310042
10
20.715943157256397
20
12.60181215887714
10
14.32092692273458
20
12.601812158876999
42
0.41421356237309553
10
9.9109269227346743
20
8.1918121588770063
10
9.9109269227347596
20
3.6036263139038383
42
-0.20829224313664216
10
9.2732856049543511
20
2.1393931285878329
42
0.02077884341948423
10
9.0396033510071696
20
1.9031139167324449
42
-0.036250873682784859
10
8.9272905355583561
20
1.7963648195124271
42
0.048190371581545627
10
7.791841527435551
20
0.68351400577082455
42
-0.2255716276767572
10
6.6155886866960714
20
0.1590037085958218
42
-0.10977857823693497
10
1.9105215793349817
20
1.3341261418445549
42
-0.36344927791072429
10
1.2316722842703776
20
7.7189635608606144
42
0.13833876784752419
10
1.2316722842572063
20
54.919389717323682
42
-0.36344927791072573
10
1.9105215793198105
20
61.30422713634141
42
-0.1097785782369345
10
6.6155886866915754
20
62.479349569595158
42
-0.22557162767676445
10
7.7918415274310995
20
61.954839272420081
42
0.048190371581544461
10
8.9272905355539773
20
60.841988458678706
42
-0.1616305032253835
10
9.2869799722822926
20
60.27179219811881
42
0.063087838628408152
0
LWPOLYLINE
5
103
100
AcDbEntity
8
0
100
AcDbPolyline
90
7
70
1
43
0.0
10
19.518435039996501
20
16.17181917008033
10
19.518435039996504
20
15.842319170080341
42
0.41421356237309309
10
20.518435039996625
20
14.842319170080449
42
0.41421356237309698
10
21.518435039996501
20
15.842319170080341
10
21.518435039996501
20
18.766320936445268
42
0.41421356237309309
10
20.518435039996625
20
19.766320936445329
42
0.41421356237309437
10
19.518435039996501
20
18.766320936445268
0
CIRCLE
5
104
100
AcDbEntity
8
0
100
AcDbCircle
10
5.382791056635269
20
4.9318121588635151
30
0
40
1.5
210
0
220
0
230
1
0
CIRCLE
5
105
100
AcDbEntity
8
0
100
AcDbCircle
10
5.3827910566223647
20
57.706541119331433
30
0
40
1.4750000000000016
210
0
220
0
230
1
0
CIRCLE
5
106
100
AcDbEntity
8
0
100
AcDbCircle
10
29.65407902335334
20
57.706541119331433
30
0
40
1.4749999999999996
210
0
220
0
230
1
0
CIRCLE
5
107
100
AcDbEntity
8
0
100
AcDbCircle
10
27.518435039996419
20
41.319176639091609
30
0
40
1.4749999999999983
210
0
220
0
230
1
0
CIRCLE
5
108
100
AcDbEntity
8
0
100
AcDbCircle
10
27.518435039996419
20
21.319176639091609
30
0
40
1.4750000000000008
210
0
220
0
230
1
0
CIRCLE
5
109
100
AcDbEntity
8
0
100
AcDbCircle
10
7.5184350399964206
20
21.319176639091609
30
0
40
1.4750000000000039
210
0
220
0
230
1
0
CIRCLE
5
110
100
AcDbEntity
8
0
100
AcDbCircle
10
7.5184350399964206
20
41.319176639091609
30
0
40
1.4750000000000039
210
0
220
0
230
1
0
LWPOLYLINE
5
111
100
AcDbEntity
8
0
100
AcDbPolyline
90
4
70
1
43
0.0
10
18.578435039996421
20
36.31917663936639
10
18.578435039996421
20
26.319176639366397
42
-0.99999999999999989
10
16.458435039996424
20
26.319176639366376
10
16.458435039996424
20
36.31917663936639
42
-0.99999999999999989
0
LWPOLYLINE
5
112
100
AcDbEntity
8
0
100
AcDbPolyline
90
8
70
1
43
0.0
10
11.128058149608
20
23.747070985438853
42
0.044353806495878979
10
11.105911925625669
20
39.139663216201484
42
-0.026100332385601339
10
11.104844585081858
20
39.167812157336051
42
-0.90014925467255635
10
13.204500175954095
20
39.358799944038537
42
-0.025852959901192886
10
13.208208148489247
20
39.333231723125067
42
-0.046192690287376326
10
13.208280248773061
20
23.305118224552093
42
-0.026098306632852977
10
13.20429937880432
20
23.277760968716969
42
-0.9715725248932896
10
11.114962087199123
20
23.631785998810301
42
0.012951551730642365
0
LWPOLYLINE
5
113
100
AcDbEntity
8
0
100
AcDbPolyline
90
8
70
1
43
0.0
10
23.932025494910981
20
39.167812157336051
42
0.90014925467255635
10
21.832369904038742
20
39.358799944038537
42
0.025852959901193129
10
21.828661931503568
20
39.333231723124939
42
0.046192690287375972
10
21.82858983121978
20
23.305118224552093
42
0.026098306632853473
10
21.832570701188523
20
23.277760968716969
42
0.9715725248932896
10
23.92190799279372
20
23.631785998810301
42
-0.012951551730642899
10
23.908811930384832
20
23.747070985438778
42
-0.04435380649587916
10
23.930958154367175
20
39.139663216201484
42
0.02610033238560136
0
LINE
5
114
100
AcDbEntity
8
0
100
AcDbLine
10
16.03159680383294
20
49.43919758119668
30
0
11
19.007467622944581
21
49.438914028175908
31
0
0
LINE
5
115
100
AcDbEntity
8
0
100
AcDbLine
10
19.586372769678349
20
48.681425506538538
30
0
11
18.101685630540697
21
42.618820081217706
31
0
0
LINE
5
116
100
AcDbEntity
8
0
100
AcDbLine
10
15.452604484606605
20
48.681819392501694
30
0
11
16.936136246513019
21
42.618931140549066
31
0
0
ARC
5
117
100
AcDbEntity
8
0
100
AcDbCircle
10
16.03159680383294
20
48.839197581196672
30
0
40
0.60000000000000497
210
0
220
-0
230
1
100
AcDbArc
50
90
51
195.20640063983819
0
ARC
5
118
100
AcDbEntity
8
0
100
AcDbCircle
10
19.007410452515501
20
48.838914030899616
30
0
40
0.6000000000000032
210
0
220
0
230
1
100
AcDbArc
50
-15.217319492407196
51
89.994540626159619
0
ARC
5
119
100
AcDbEntity
8
0
100
AcDbCircle
10
17.518827672003663
20
42.761215952213973
30
0
40
0.59999998658895415
210
0
220
0
230
1
100
AcDbArc
50
192.3144851090789
51
346.27120076748503
0
ENDSEC
0
SECTION
2
OBJECTS
0
DICTIONARY
5
C
100
AcDbDictionary
3
ACAD_GROUP
350
D
3
ACAD_MLINESTYLE
350
17
0
DICTIONARY
5
D
100
AcDbDictionary
0
DICTIONARY
5
1A
330
C
100
AcDbDictionary
0
DICTIONARY
5
17
100
AcDbDictionary
0
ENDSEC
0
EOF
