0
SECTION
2
HEADER
9
$INSUNITS
70
4
9
$ACADVER
1
AC1014
9
$HANDSEED
5
FFFF
0
ENDSEC
0
SECTION
2
TABLES
0
TABLE
2
VPORT
5
8
100
AcDbSymbolTable
0
ENDTAB
0
TABLE
2
LTYPE
5
5
100
AcDbSymbolTable
0
LTYPE
5
14
100
AcDbSymbolTableRecord
100
AcDbLinetypeTableRecord
2
BYBLOCK
70
0
0
LTYPE
5
15
100
AcDbSymbolTableRecord
100
AcDbLinetypeTableRecord
2
BYLAYER
70
0
0
ENDTAB
0
TABLE
2
LAYER
5
2
100
AcDbSymbolTable
70
2
0
LAYER
5
50
100
AcDbSymbolTableRecord
100
AcDbLayerTableRecord
2
0
70
0
6
CONTINUOUS
0
ENDTAB
0
TABLE
2
STYLE
5
3
100
AcDbSymbolTable
70
1
0
STYLE
5
11
100
AcDbSymbolTableRecord
100
AcDbTextStyleTableRecord
2
STANDARD
70
0
0
ENDTAB
0
TABLE
2
VIEW
5
6
100
AcDbSymbolTable
70
0
0
ENDTAB
0
TABLE
2
UCS
5
7
100
AcDbSymbolTable
70
0
0
ENDTAB
0
TABLE
2
APPID
5
9
100
AcDbSymbolTable
70
2
0
APPID
5
12
100
AcDbSymbolTableRecord
100
AcDbRegAppTableRecord
2
ACAD
70
0
0
ENDTAB
0
TABLE
2
DIMSTYLE
5
A
100
AcDbSymbolTable
70
1
0
ENDTAB
0
TABLE
2
BLOCK_RECORD
5
1
100
AcDbSymbolTable
70
1
0
BLOCK_RECORD
5
1F
100
AcDbSymbolTableRecord
100
AcDbBlockTableRecord
2
*MODEL_SPACE
0
BLOCK_RECORD
5
1B
100
AcDbSymbolTableRecord
100
AcDbBlockTableRecord
2
*PAPER_SPACE
0
ENDTAB
0
ENDSEC
0
SECTION
2
BLOCKS
0
BLOCK
5
20
100
AcDbEntity
100
AcDbBlockBegin
2
*MODEL_SPACE
0
ENDBLK
5
21
100
AcDbEntity
100
AcDbBlockEnd
0
BLOCK
5
1C
100
AcDbEntity
100
AcDbBlockBegin
2
*PAPER_SPACE
0
ENDBLK
5
1D
100
AcDbEntity
100
AcDbBlockEnd
0
ENDSEC
0
SECTION
2
ENTITIES
0
LWPOLYLINE
5
100
100
AcDbEntity
8
0
100
AcDbPolyline
90
23
70
1
43
0.0
10
50.971801965682467
20
-33.407186534692919
42
0.40225952714198199
10
50.484827810949426
20
-38.537185820800858
42
-0.36254696044123513
10
50.340272053273239
20
-44.237077339383802
42
0.080997526112758358
10
49.486298342375548
20
-45.601214920106798
42
0.10372847386847354
10
46.01933095440252
20
-63.534429357299118
10
46.576847328140751
20
-99.449428259971114
42
0.058226635836193329
10
48.761693299071155
20
-115.92475704926251
42
0.057557382692175148
10
49.087745400546353
20
-116.78277151415693
42
0.051921939608956018
10
50.511098201333056
20
-118.94632794755816
42
0.065136361705354681
10
51.745871045513169
20
-120.25097010097093
42
-0.1454776859641897
10
54.488796834729534
20
-123.56935348982803
42
0.062702064561347332
10
55.537767278085326
20
-125.02757711264799
10
44.36790288223758
20
-134.26041898869653
10
37.199819859400336
20
-125.58849365756137
42
0.28195507180551999
10
36.806931794782948
20
-122.47691642093793
42
-0.13500381510936529
10
36.551212908395314
20
-122.00360696929988
42
-0.17618101206959239
10
35.667836389779389
20
-114.97564628906252
42
0.04765889968941827
10
35.730964024049399
20
-114.48708050931336
42
-0.000747321895113797
10
38.120467749469839
20
-61.332620993758376
42
0.097026376521526819
10
33.449362556884147
20
-32.19415422850733
42
0.049832196479941346
10
33.015155408880517
20
-31.299811802904074
42
-0.93489244457859022
10
40.247887170064132
20
-26.148965903755517
42
0.40028469227514113
10
45.278785367552473
20
-26.57170079624645
42
-0.98335188626330861
0
CIRCLE
5
101
100
AcDbEntity
8
0
100
AcDbCircle
10
41.920973679925318
20
-115.42013928367744
30
0
40
1.4499999999999955
210
0
220
0
230
1
0
CIRCLE
5
102
100
AcDbEntity
8
0
100
AcDbCircle
10
47.614895776461239
20
-126.45177969837349
30
0
40
1.4499999999999955
210
0
220
0
230
1
0
CIRCLE
5
103
100
AcDbEntity
8
0
100
AcDbCircle
10
36.805039529394691
20
-28.968040267020633
30
0
40
1.5000000000000033
210
0
220
0
230
1
0
CIRCLE
5
104
100
AcDbEntity
8
0
100
AcDbCircle
10
46.998691877771563
20
-41.300495488931112
30
0
40
1.4999999999999811
210
0
220
0
230
1
0
CIRCLE
5
105
100
AcDbEntity
8
0
100
AcDbCircle
10
41.921253019817968
20
-35.135056041611293
30
0
40
3.5000000000000009
210
0
220
0
230
1
0
CIRCLE
5
106
100
AcDbEntity
8
0
100
AcDbCircle
10
48.077244420601197
20
-30.048527139095349
30
0
40
1.5000000000000226
210
0
220
0
230
1
0
LINE
5
107
100
AcDbEntity
8
0
100
AcDbLine
10
50.511098201333063
20
-118.94632794755819
30
0
11
39.341294475667048
21
-128.17924322221074
31
0
0
ENDSEC
0
SECTION
2
OBJECTS
0
DICTIONARY
5
C
100
AcDbDictionary
3
ACAD_GROUP
350
D
3
ACAD_MLINESTYLE
350
17
0
DICTIONARY
5
D
100
AcDbDictionary
0
DICTIONARY
5
1A
330
C
100
AcDbDictionary
0
DICTIONARY
5
17
100
AcDbDictionary
0
ENDSEC
0
EOF
