0
SECTION
2
HEADER
9
$INSUNITS
70
4
9
$ACADVER
1
AC1014
9
$HANDSEED
5
FFFF
0
ENDSEC
0
SECTION
2
TABLES
0
TABLE
2
VPORT
5
8
100
AcDbSymbolTable
0
ENDTAB
0
TABLE
2
LTYPE
5
5
100
AcDbSymbolTable
0
LTYPE
5
14
100
AcDbSymbolTableRecord
100
AcDbLinetypeTableRecord
2
BYBLOCK
70
0
0
LTYPE
5
15
100
AcDbSymbolTableRecord
100
AcDbLinetypeTableRecord
2
BYLAYER
70
0
0
ENDTAB
0
TABLE
2
LAYER
5
2
100
AcDbSymbolTable
70
2
0
LAYER
5
50
100
AcDbSymbolTableRecord
100
AcDbLayerTableRecord
2
0
70
0
6
CONTINUOUS
0
ENDTAB
0
TABLE
2
STYLE
5
3
100
AcDbSymbolTable
70
1
0
STYLE
5
11
100
AcDbSymbolTableRecord
100
AcDbTextStyleTableRecord
2
STANDARD
70
0
0
ENDTAB
0
TABLE
2
VIEW
5
6
100
AcDbSymbolTable
70
0
0
ENDTAB
0
TABLE
2
UCS
5
7
100
AcDbSymbolTable
70
0
0
ENDTAB
0
TABLE
2
APPID
5
9
100
AcDbSymbolTable
70
2
0
APPID
5
12
100
AcDbSymbolTableRecord
100
AcDbRegAppTableRecord
2
ACAD
70
0
0
ENDTAB
0
TABLE
2
DIMSTYLE
5
A
100
AcDbSymbolTable
70
1
0
ENDTAB
0
TABLE
2
BLOCK_RECORD
5
1
100
AcDbSymbolTable
70
1
0
BLOCK_RECORD
5
1F
100
AcDbSymbolTableRecord
100
AcDbBlockTableRecord
2
*MODEL_SPACE
0
BLOCK_RECORD
5
1B
100
AcDbSymbolTableRecord
100
AcDbBlockTableRecord
2
*PAPER_SPACE
0
ENDTAB
0
ENDSEC
0
SECTION
2
BLOCKS
0
BLOCK
5
20
100
AcDbEntity
100
AcDbBlockBegin
2
*MODEL_SPACE
0
ENDBLK
5
21
100
AcDbEntity
100
AcDbBlockEnd
0
BLOCK
5
1C
100
AcDbEntity
100
AcDbBlockBegin
2
*PAPER_SPACE
0
ENDBLK
5
1D
100
AcDbEntity
100
AcDbBlockEnd
0
ENDSEC
0
SECTION
2
ENTITIES
0
CIRCLE
5
100
100
AcDbEntity
8
0
100
AcDbCircle
10
-218.52488798748226
20
129.37011956772204
30
0
40
1.4499999999999955
210
-0
220
0
230
1
0
ARC
5
101
100
AcDbEntity
8
0
100
AcDbCircle
10
-219.08464814702893
20
205.72375824597711
30
0
40
4.4484999999953097
210
-0
220
0
230
1
100
AcDbArc
50
-41.995692491357325
51
37.716142532185771
0
CIRCLE
5
102
100
AcDbEntity
8
0
100
AcDbCircle
10
-217.880482383691
20
216.97344794609333
30
0
40
1.5000000000000226
210
-0
220
0
230
1
0
ARC
5
103
100
AcDbEntity
8
0
100
AcDbCircle
10
-304.87267589149678
20
189.36600381347637
30
0
40
76.753131407005327
210
-0
220
0
230
1
100
AcDbArc
50
-2.6632730933109379
51
19.504145955520997
0
CIRCLE
5
104
100
AcDbEntity
8
0
100
AcDbCircle
10
-224.08613003769202
20
140.46923781826581
30
0
40
1.4499999999999955
210
-0
220
0
230
1
0
ARC
5
105
100
AcDbEntity
8
0
100
AcDbCircle
10
-209.88705317663681
20
140.8395829656962
30
0
40
6.92369964207656
210
0
220
0
230
1
100
AcDbArc
50
215.28341706705871
51
230.1905130023018
0
ARC
5
106
100
AcDbEntity
8
0
100
AcDbCircle
10
-231.64990116715987
20
131.6260606103499
30
0
40
3.001908936081624
210
-0
220
0
230
1
100
AcDbArc
50
-24.982678957023229
51
38.001590280120531
0
ARC
5
107
100
AcDbEntity
8
0
100
AcDbCircle
10
-225.68146672249597
20
210.99596479154752
30
0
40
1.8390169368186295
210
0
220
-0
230
1
100
AcDbArc
50
31.335784697721166
51
46.444214006502499
0
ARC
5
108
100
AcDbEntity
8
0
100
AcDbCircle
10
-217.880482383691
20
216.97344794609333
30
0
40
4.4484999999988855
210
-0
220
0
230
1
100
AcDbArc
50
-49.935518108088871
51
128.14078038640019
0
ARC
5
109
100
AcDbEntity
8
0
100
AcDbCircle
10
-232.85185693732245
20
141.59358748367279
30
2.7323216995365946e-15
40
2.5900000000900247
210
1.0495211694142849e-15
220
-1.4379004455904182e-16
230
1
100
AcDbArc
50
346.49341966691946
51
357.40777638322794
0
ARC
5
110
100
AcDbEntity
8
0
100
AcDbCircle
10
-222.88725200110107
20
223.34946570677135
30
0
40
3.6583702028874949
210
0
220
0
230
1
100
AcDbArc
50
220.87890991193922
51
308.14078945853009
0
ARC
5
111
100
AcDbEntity
8
0
100
AcDbCircle
10
-212.06256897297669
20
199.40200561530187
30
0
40
5.0000000000103908
210
0
220
0
230
1
100
AcDbArc
50
138.00430750865343
51
156.52713676866821
0
CIRCLE
5
112
100
AcDbEntity
8
0
100
AcDbCircle
10
-229.12972651442107
20
218.17760788484679
30
0
40
1.5000000000000033
210
-0
220
0
230
1
0
ARC
5
113
100
AcDbEntity
8
0
100
AcDbCircle
10
-220.25700254227053
20
138.56830055456189
30
8.8817841970012523e-15
40
10.363096858808534
210
-8.286277722861986e-16
220
2.1891994064874834e-16
230
1
100
AcDbArc
50
166.49341966682786
51
206.46097405723552
0
ARC
5
114
100
AcDbEntity
8
0
100
AcDbCircle
10
-212.62232431893187
20
210.7213234375956
30
0
40
3.7207892655216601
210
0
220
0
230
1
100
AcDbArc
50
130.0644927925577
51
217.7162011332606
0
CIRCLE
5
115
100
AcDbEntity
8
0
100
AcDbCircle
10
-224.08782408641926
20
211.94969138330731
30
0
40
3.5000000000000004
210
-0
220
0
230
1
0
ARC
5
116
100
AcDbEntity
8
0
100
AcDbCircle
10
17543.303886100679
20
-663.19931934168244
30
0
40
17791.774406283697
210
0
220
0
230
1
100
AcDbArc
50
177.26488586133897
51
177.40777638324863
0
LINE
5
117
100
AcDbEntity
8
0
100
AcDbLine
10
-221.86527403291393
20
121.60097344417657
30
0
11
-228.92886431864949
21
130.35822161048623
31
0
0
ARC
5
118
100
AcDbEntity
8
0
100
AcDbCircle
10
-212.59894842121247
20
141.53824451712399
30
-2.8993956350832935e-13
40
5.0000000000221556
210
5.5467989745828699e-14
220
1.8098284693368664e-14
230
1
100
AcDbArc
50
196.44155620963775
51
204.4209946324537
0
ARC
5
119
100
AcDbEntity
8
0
100
AcDbCircle
10
-150.62626247968177
20
159.82665016614308
30
-9.3630791968583732e-14
40
69.614855753097004
210
1.3439302605417458e-15
220
2.8274254985691934e-16
230
1
100
AcDbArc
50
180.21523611173973
51
196.44155620963173
0
ARC
5
120
100
AcDbEntity
8
0
100
AcDbCircle
10
-175.83538011463764
20
183.67037347593677
30
4.0395679684505856e-40
40
44.495486607293643
210
-1.9080080930095269e-17
220
8.2162637587424003e-18
230
1
100
AcDbArc
50
156.5271367686577
51
180.21523611173973
0
CIRCLE
5
121
100
AcDbEntity
8
0
100
AcDbCircle
10
-218.52488798748226
20
129.37011956772204
30
0
40
1.4499999999999933
210
-0
220
0
230
1
0
LINE
5
122
100
AcDbEntity
8
0
100
AcDbLine
10
-220.24062703495713
20
159.56513708860359
30
0
11
-220.33055276471833
21
183.50322306653911
31
3.4835105685929061e-16
0
ARC
5
123
100
AcDbEntity
8
0
100
AcDbCircle
10
-237.23693044638239
20
213.32258547275455
30
0
40
4.9999999999962448
210
0
220
-0
230
1
100
AcDbArc
50
19.504145955520748
51
30.915404709889316
0
LINE
5
124
100
AcDbEntity
8
0
100
AcDbLine
10
-215.53890245152726
20
136.84030596758629
30
0
11
-226.81860705064378
21
127.74198173202049
31
0
0
ARC
5
125
100
AcDbEntity
8
0
100
AcDbCircle
10
-218.6051872657722
20
129.2987999661506
30
0
40
7.555077891128505
210
0
220
-0
230
1
100
AcDbArc
50
22.335241089321574
51
55.444005914919934
0
LINE
5
126
100
AcDbEntity
8
0
100
AcDbLine
10
-210.58550964803538
20
130.69922355897151
30
0
11
-221.86527403291393
21
121.60097344417657
31
0
0
ARC
5
127
100
AcDbEntity
8
0
100
AcDbCircle
10
-229.12972651442107
20
218.17760788484679
30
0
40
4.4497618073871985
210
0
220
-0
230
1
100
AcDbArc
50
38.624321396304303
51
210.91540470988988
0
ARC
5
128
100
AcDbEntity
8
0
100
AcDbCircle
10
-205.76708536813328
20
144.64033403424872
30
0
40
12.503153480278524
210
1.1076725134671024e-29
220
5.029520155386816e-30
230
1
100
AcDbArc
50
204.42099463248272
51
218.59745358571814
0
CIRCLE
5
129
100
AcDbEntity
8
0
100
AcDbCircle
10
-219.08467460324601
20
205.72381600840228
30
0
40
1.4999999999999811
210
-0
220
0
230
1
0
ARC
5
130
100
AcDbEntity
8
0
100
AcDbCircle
10
-205.26044254619256
20
135.53075137448508
30
0
40
7.190271251573864
210
0
220
0
230
1
100
AcDbArc
50
207.86654871378363
51
222.21801522534895
0
ARC
5
131
100
AcDbEntity
8
0
100
AcDbCircle
10
-228.54341663966073
20
134.16701515373347
30
0
40
1.0143735575790496
210
0
220
0
230
1
100
AcDbArc
50
192.31707110516172
51
223.0717208930339
0
ENDSEC
0
SECTION
2
OBJECTS
0
DICTIONARY
5
C
100
AcDbDictionary
3
ACAD_GROUP
350
D
3
ACAD_MLINESTYLE
350
17
0
DICTIONARY
5
D
100
AcDbDictionary
0
DICTIONARY
5
1A
330
C
100
AcDbDictionary
0
DICTIONARY
5
17
100
AcDbDictionary
0
ENDSEC
0
EOF
