0
SECTION
2
HEADER
9
$INSUNITS
70
4
9
$ACADVER
1
AC1014
9
$HANDSEED
5
FFFF
0
ENDSEC
0
SECTION
2
TABLES
0
TABLE
2
VPORT
5
8
100
AcDbSymbolTable
0
ENDTAB
0
TABLE
2
LTYPE
5
5
100
AcDbSymbolTable
0
LTYPE
5
14
100
AcDbSymbolTableRecord
100
AcDbLinetypeTableRecord
2
BYBLOCK
70
0
0
LTYPE
5
15
100
AcDbSymbolTableRecord
100
AcDbLinetypeTableRecord
2
BYLAYER
70
0
0
ENDTAB
0
TABLE
2
LAYER
5
2
100
AcDbSymbolTable
70
2
0
LAYER
5
50
100
AcDbSymbolTableRecord
100
AcDbLayerTableRecord
2
0
70
0
6
CONTINUOUS
0
ENDTAB
0
TABLE
2
STYLE
5
3
100
AcDbSymbolTable
70
1
0
STYLE
5
11
100
AcDbSymbolTableRecord
100
AcDbTextStyleTableRecord
2
STANDARD
70
0
0
ENDTAB
0
TABLE
2
VIEW
5
6
100
AcDbSymbolTable
70
0
0
ENDTAB
0
TABLE
2
UCS
5
7
100
AcDbSymbolTable
70
0
0
ENDTAB
0
TABLE
2
APPID
5
9
100
AcDbSymbolTable
70
2
0
APPID
5
12
100
AcDbSymbolTableRecord
100
AcDbRegAppTableRecord
2
ACAD
70
0
0
ENDTAB
0
TABLE
2
DIMSTYLE
5
A
100
AcDbSymbolTable
70
1
0
ENDTAB
0
TABLE
2
BLOCK_RECORD
5
1
100
AcDbSymbolTable
70
1
0
BLOCK_RECORD
5
1F
100
AcDbSymbolTableRecord
100
AcDbBlockTableRecord
2
*MODEL_SPACE
0
BLOCK_RECORD
5
1B
100
AcDbSymbolTableRecord
100
AcDbBlockTableRecord
2
*PAPER_SPACE
0
ENDTAB
0
ENDSEC
0
SECTION
2
BLOCKS
0
BLOCK
5
20
100
AcDbEntity
100
AcDbBlockBegin
2
*MODEL_SPACE
0
ENDBLK
5
21
100
AcDbEntity
100
AcDbBlockEnd
0
BLOCK
5
1C
100
AcDbEntity
100
AcDbBlockBegin
2
*PAPER_SPACE
0
ENDBLK
5
1D
100
AcDbEntity
100
AcDbBlockEnd
0
ENDSEC
0
SECTION
2
ENTITIES
0
LWPOLYLINE
5
100
100
AcDbEntity
8
0
100
AcDbPolyline
90
20
70
1
43
0.0
10
-334.73645754358517
20
28.086064167940343
10
-334.73645754358529
20
13.59429961908206
42
-0.061935484401331002
10
-331.67630617939125
20
13.197899377913114
42
-0.034830943561540685
10
-331.01632764324211
20
12.977602192480546
42
-0.070919217187611419
10
-314.09665237504566
20
2.986632291088398
10
-295.40791981710044
20
-11.972355719519246
42
-0.10372847386847721
10
-283.79440865954172
20
-26.070100273626959
42
-0.080997526112759122
10
-283.28705276873859
20
-27.597428803483098
42
0.36254696044123547
10
-278.98585133484619
20
-31.340332210701863
42
-0.40225952714198848
10
-275.34206497266092
20
-34.984074442199862
42
0.9833518862632924
10
-266.44637987225587
20
-34.951061393837968
42
-0.40028469227514446
10
-262.91529003032383
20
-31.342731310393901
42
0.93489244457859877
10
-262.27732342456602
20
-22.486286153560975
42
-0.049832196479938758
10
-263.24329462286437
20
-22.251160940815211
42
-0.09702637652152736
10
-288.6783527122202
20
-7.2869606901849693
42
0.00062347760010148564
10
-321.88276780663188
20
22.145317930220259
42
-0.047658899689391784
10
-322.21911965303366
20
22.505247165423803
42
0.17618101206958853
10
-328.1988664016049
20
26.301984477847856
42
0.13500381510940027
10
-328.7266009271471
20
26.406436650712774
42
-0.28195507180551882
10
-331.37522312177555
20
28.086042080840144
0
CIRCLE
5
101
100
AcDbEntity
8
0
100
AcDbCircle
10
-262.89465670833579
20
-26.89301734110267
30
0
40
1.4999999999999858
210
0
220
-0
230
1
0
CIRCLE
5
102
100
AcDbEntity
8
0
100
AcDbCircle
10
-270.89449955114435
20
-34.892892912711922
30
0
40
1.5000000000000213
210
0
220
-0
230
1
0
CIRCLE
5
103
100
AcDbEntity
8
0
100
AcDbCircle
10
-270.90761614250812
20
-26.907340397600919
30
0
40
3.499999999999996
210
0
220
-0
230
1
0
CIRCLE
5
104
100
AcDbEntity
8
0
100
AcDbCircle
10
-278.89465670659717
20
-26.892781468287382
30
0
40
1.4999999999999858
210
0
220
-0
230
1
0
CIRCLE
5
105
100
AcDbEntity
8
0
100
AcDbCircle
10
-326.54568637972102
20
17.968715411848592
30
0
40
1.4499999999999957
210
0
220
-0
230
1
0
CIRCLE
5
106
100
AcDbEntity
8
0
100
AcDbCircle
10
-406.46816117503107
20
116.60505269688082
30
0
40
1.5000000000000213
210
0
220
1.836676017326774e-48
230
1
0
CIRCLE
5
107
100
AcDbEntity
8
0
100
AcDbCircle
10
-398.46800401957819
20
108.60494125245629
30
0
40
1.4999999999999858
210
0
220
1.836676017326774e-48
230
1
0
CIRCLE
5
108
100
AcDbEntity
8
0
100
AcDbCircle
10
-406.46816117503107
20
116.60505269688082
30
0
40
1.4750000000000085
210
0
220
0
230
1
0
CIRCLE
5
109
100
AcDbEntity
8
0
100
AcDbCircle
10
-398.46800401957819
20
108.60494125245629
30
0
40
1.4750000000000085
210
0
220
0
230
1
0
LWPOLYLINE
5
110
100
AcDbEntity
8
0
100
AcDbPolyline
90
14
70
1
43
0.0
10
-408.63743733480504
20
112.89990288214634
10
-401.4658939131653
20
105.64251292962751
42
0.36227310137512336
10
-396.09199533032046
20
105.12386267096156
42
-0.15085855241022345
10
-384.81701261772849
20
108.60494125245731
10
-292.55587967867348
20
108.60494125245734
42
-0.15085855241022345
10
-281.28089696608151
20
105.12386267096156
42
0.36227310137512336
10
-275.90699838323667
20
105.64251292962751
10
-268.73545496159693
20
112.89990288214634
42
-0.03021778554068837
10
-268.28589027803878
20
113.3029801829454
42
1.5170714622423065
10
-275.1022291096736
20
116.98323372256787
42
-0.35851171349898742
10
-279.14447049963547
20
113.04855088607667
42
0.013300908579870445
10
-398.2284217967665
20
113.04855088607609
42
-0.35851171349898742
10
-402.27066318672871
20
116.98323372256783
42
1.5170714622423065
10
-409.08700201836319
20
113.3029801829454
42
-0.03021778554068837
0
CIRCLE
5
111
100
AcDbEntity
8
0
100
AcDbCircle
10
-338.68644614820096
20
61.103723797722495
30
0
40
1.4499999999999957
210
0
220
1.836676017326774e-48
230
1
0
LINE
5
112
100
AcDbEntity
8
0
100
AcDbLine
10
-338.68644614820096
20
61.103723797722495
30
0
11
-338.68644614820096
21
88.000001311302185
31
0
0
CIRCLE
5
113
100
AcDbEntity
8
0
100
AcDbCircle
10
-278.90488827682373
20
108.60494125245629
30
0
40
1.4999999999999858
210
0
220
1.836676017326774e-48
230
1
0
CIRCLE
5
114
100
AcDbEntity
8
0
100
AcDbCircle
10
-278.90488827682373
20
108.60494125245629
30
0
40
1.4750000000000085
210
0
220
0
230
1
0
CIRCLE
5
115
100
AcDbEntity
8
0
100
AcDbCircle
10
-270.9047311213709
20
116.60505269688082
30
0
40
1.4750000000000085
210
0
220
0
230
1
0
CIRCLE
5
116
100
AcDbEntity
8
0
100
AcDbCircle
10
-270.9047311213709
20
116.60505269688082
30
0
40
1.5000000000000213
210
0
220
1.836676017326774e-48
230
1
0
ENDSEC
0
SECTION
2
OBJECTS
0
DICTIONARY
5
C
100
AcDbDictionary
3
ACAD_GROUP
350
D
3
ACAD_MLINESTYLE
350
17
0
DICTIONARY
5
D
100
AcDbDictionary
0
DICTIONARY
5
1A
330
C
100
AcDbDictionary
0
DICTIONARY
5
17
100
AcDbDictionary
0
ENDSEC
0
EOF
