0
SECTION
2
HEADER
9
$INSUNITS
70
4
9
$ACADVER
1
AC1014
9
$HANDSEED
5
FFFF
0
ENDSEC
0
SECTION
2
TABLES
0
TABLE
2
VPORT
5
8
100
AcDbSymbolTable
0
ENDTAB
0
TABLE
2
LTYPE
5
5
100
AcDbSymbolTable
0
LTYPE
5
14
100
AcDbSymbolTableRecord
100
AcDbLinetypeTableRecord
2
BYBLOCK
70
0
0
LTYPE
5
15
100
AcDbSymbolTableRecord
100
AcDbLinetypeTableRecord
2
BYLAYER
70
0
0
ENDTAB
0
TABLE
2
LAYER
5
2
100
AcDbSymbolTable
70
2
0
LAYER
5
50
100
AcDbSymbolTableRecord
100
AcDbLayerTableRecord
2
0
70
0
6
CONTINUOUS
0
ENDTAB
0
TABLE
2
STYLE
5
3
100
AcDbSymbolTable
70
1
0
STYLE
5
11
100
AcDbSymbolTableRecord
100
AcDbTextStyleTableRecord
2
STANDARD
70
0
0
ENDTAB
0
TABLE
2
VIEW
5
6
100
AcDbSymbolTable
70
0
0
ENDTAB
0
TABLE
2
UCS
5
7
100
AcDbSymbolTable
70
0
0
ENDTAB
0
TABLE
2
APPID
5
9
100
AcDbSymbolTable
70
2
0
APPID
5
12
100
AcDbSymbolTableRecord
100
AcDbRegAppTableRecord
2
ACAD
70
0
0
ENDTAB
0
TABLE
2
DIMSTYLE
5
A
100
AcDbSymbolTable
70
1
0
ENDTAB
0
TABLE
2
BLOCK_RECORD
5
1
100
AcDbSymbolTable
70
1
0
BLOCK_RECORD
5
1F
100
AcDbSymbolTableRecord
100
AcDbBlockTableRecord
2
*MODEL_SPACE
0
BLOCK_RECORD
5
1B
100
AcDbSymbolTableRecord
100
AcDbBlockTableRecord
2
*PAPER_SPACE
0
ENDTAB
0
ENDSEC
0
SECTION
2
BLOCKS
0
BLOCK
5
20
100
AcDbEntity
100
AcDbBlockBegin
2
*MODEL_SPACE
0
ENDBLK
5
21
100
AcDbEntity
100
AcDbBlockEnd
0
BLOCK
5
1C
100
AcDbEntity
100
AcDbBlockBegin
2
*PAPER_SPACE
0
ENDBLK
5
1D
100
AcDbEntity
100
AcDbBlockEnd
0
ENDSEC
0
SECTION
2
ENTITIES
0
LWPOLYLINE
5
100
100
AcDbEntity
8
0
100
AcDbPolyline
90
22
70
1
43
0.0
10
-38.577348780336237
20
1.1052842744508822
42
0.10970345803742941
10
-40.21128339560137
20
1.6869539708112402
42
0.19900288019478835
10
-43.87844756280888
20
0.7567780850736705
42
-0.83753276231650875
10
-50.962194251541142
20
7.5935829912600683
42
0.11561422886814836
10
-46.88905294467007
20
21.656193171530454
10
-46.88905294467007
20
46.570160106621785
42
0.11561422886814836
10
-50.962194251541142
20
60.632770286892168
42
-0.83753276231650875
10
-43.87844756280888
20
67.469575193078569
42
0.19900288019478857
10
-40.21128339560137
20
66.539399307341
42
0.10970345803742948
10
-38.577348780336237
20
67.121069003701365
42
-0.14441751507078635
10
-34.675431495771001
20
68.216453312593742
42
-0.14441751507076822
10
-30.773514211209303
20
67.121069003704847
42
0.10970345803746245
10
-29.139579595943339
20
66.539399307346244
42
0.19719945502618191
10
-25.472415428737307
20
67.469575193087152
42
-0.83753276232303775
10
-18.388668740040966
20
60.632770286844256
42
0.11561422886814571
10
-22.461810046872159
20
46.570160106621763
10
-22.461810046872163
20
21.656193171530475
42
0.11561422886814571
10
-18.388668740040963
20
7.5935829913079811
42
-0.83753276232303819
10
-25.472415428737307
20
0.75677808506508182
42
0.19719945502618202
10
-29.139579595943339
20
1.6869539708059915
42
0.10970345803746245
10
-30.773514211209303
20
1.1052842744473956
42
-0.14441751507076822
10
-34.675431495771001
20
0.0098999655584908197
42
-0.14441751507078651
0
LWPOLYLINE
5
101
100
AcDbEntity
8
0
100
AcDbPolyline
90
8
70
1
43
0.0
10
-30.625994992466062
20
17.103623592778987
42
-0.99999999999999989
10
-29.869390736596841
20
16.347019336909867
10
-29.869390736596841
20
15.764227848648078
42
-0.99999999999999989
10
-30.625994992466062
20
15.007623592779042
10
-38.724867999076181
20
15.007623592779042
42
-0.99999999999999989
10
-39.481472254945388
20
15.764227848648078
10
-39.481472254945388
20
16.347019336909867
42
-0.9999999925494194
10
-38.724867999076181
20
17.103623592778987
0
CIRCLE
5
102
100
AcDbEntity
8
0
100
AcDbCircle
10
-34.670333060293146
20
7.5714530231254695
30
0
40
2.1100000000000132
210
0
220
0
230
1
0
CIRCLE
5
103
100
AcDbEntity
8
0
100
AcDbCircle
10
-22.539787512405578
20
4.9318121588561858
30
0
40
2.1100000000000132
210
0
220
0
230
1
0
CIRCLE
5
104
100
AcDbEntity
8
0
100
AcDbCircle
10
-46.811075479136619
20
4.9318121588561858
30
0
40
2.1100000000000132
210
0
220
0
230
1
0
LWPOLYLINE
5
105
100
AcDbEntity
8
0
100
AcDbPolyline
90
6
70
1
43
0.0
10
-36.17033306029326
20
36.113176639076265
42
-0.41421356237310542
10
-36.67033306029326
20
35.613176639076272
10
-40.014486374925795
20
35.613176639076272
42
-0.66817863791928989
10
-40.368039765519029
20
36.466730029669449
10
-37.023886450886522
20
39.810883344302034
42
-0.66817863791928078
10
-36.17033306029326
20
39.457329953708744
0
LWPOLYLINE
5
106
100
AcDbEntity
8
0
100
AcDbPolyline
90
6
70
1
43
0.0
10
-33.17033306029326
20
36.113176639076265
42
0.4142135623730846
10
-32.670333060293252
20
35.613176639076272
10
-29.326179745660717
20
35.613176639076272
42
0.66817863791932464
10
-28.972626355067447
20
36.466730029669463
10
-32.316779669699976
20
39.810883344302034
42
0.66817863791931642
10
-33.17033306029326
20
39.457329953708744
0
LWPOLYLINE
5
107
100
AcDbEntity
8
0
100
AcDbPolyline
90
6
70
1
43
0.0
10
-40.014486374925795
20
35.613176639076272
42
-0.66817863791928989
10
-40.368039765519029
20
36.466730029669449
10
-37.023886450886522
20
39.810883344302034
42
-0.66817863791928078
10
-36.17033306029326
20
39.457329953708744
10
-36.17033306029326
20
36.113176639076265
42
-0.41421356237310542
10
-36.67033306029326
20
35.613176639076272
0
LWPOLYLINE
5
108
100
AcDbEntity
8
0
100
AcDbPolyline
90
6
70
1
43
0.0
10
-37.023886450886522
20
28.415469933850474
42
0.66817863791928378
10
-36.17033306029326
20
28.769023324443623
10
-36.17033306029326
20
32.113176639076258
42
0.41421356237309503
10
-36.67033306029326
20
32.613176639076265
10
-40.014486374925795
20
32.613176639076265
42
0.66817863791931331
10
-40.368039765519029
20
31.759623248482932
0
CIRCLE
5
109
100
AcDbEntity
8
0
100
AcDbCircle
10
-44.670333060293075
20
24.113176639076109
30
0
40
1.45
210
0
220
0
230
1
0
LWPOLYLINE
5
110
100
AcDbEntity
8
0
100
AcDbPolyline
90
6
70
1
43
0.0
10
-33.17033306029326
20
36.113176639076265
42
0.4142135623730846
10
-32.670333060293252
20
35.613176639076272
10
-29.326179745660717
20
35.613176639076272
42
0.66817863791932464
10
-28.972626355067447
20
36.466730029669463
10
-32.316779669699976
20
39.810883344302034
42
0.66817863791931642
10
-33.17033306029326
20
39.457329953708744
0
LWPOLYLINE
5
111
100
AcDbEntity
8
0
100
AcDbPolyline
90
6
70
1
43
0.0
10
-32.316779669699976
20
28.415469933850474
42
-0.66817863791928844
10
-33.170333060293245
20
28.769023324443623
10
-33.17033306029326
20
32.113176639076258
42
-0.41421356237309503
10
-32.670333060293252
20
32.613176639076265
10
-29.326179745660717
20
32.613176639076265
42
-0.6681786379193061
10
-28.972626355067447
20
31.759623248482932
0
CIRCLE
5
112
100
AcDbEntity
8
0
100
AcDbCircle
10
-44.670333060293075
20
24.113176639076109
30
0
40
1.45
210
0
220
0
230
1
0
CIRCLE
5
113
100
AcDbEntity
8
0
100
AcDbCircle
10
-24.67033306029321
20
24.113176639076109
30
0
40
1.45
210
0
220
0
230
1
0
LWPOLYLINE
5
114
100
AcDbEntity
8
0
100
AcDbPolyline
90
6
70
1
43
0.0
10
-32.670333060293252
20
32.613176639076265
10
-29.326179745660717
20
32.613176639076265
42
-0.6681786379193061
10
-28.972626355067447
20
31.759623248482932
10
-32.316779669699976
20
28.415469933850474
42
-0.66817863791928844
10
-33.170333060293245
20
28.769023324443623
10
-33.17033306029326
20
32.113176639076258
42
-0.41421356237309503
0
LWPOLYLINE
5
115
100
AcDbEntity
8
0
100
AcDbPolyline
90
6
70
1
43
0.0
10
-36.67033306029326
20
32.613176639076265
10
-40.014486374925795
20
32.613176639076265
42
0.66817863791931331
10
-40.368039765519029
20
31.759623248482932
10
-37.023886450886522
20
28.415469933850474
42
0.66817863791928378
10
-36.17033306029326
20
28.769023324443623
10
-36.17033306029326
20
32.113176639076258
42
0.41421356237309503
0
CIRCLE
5
116
100
AcDbEntity
8
0
100
AcDbCircle
10
-44.670333060293075
20
44.11317663907613
30
0
40
1.45
210
0
220
0
230
1
0
CIRCLE
5
117
100
AcDbEntity
8
0
100
AcDbCircle
10
-24.67033306029321
20
44.11317663907613
30
0
40
1.45
210
0
220
0
230
1
0
CIRCLE
5
118
100
AcDbEntity
8
0
100
AcDbCircle
10
-44.670333060293075
20
44.11317663907613
30
0
40
1.45
210
0
220
0
230
1
0
CIRCLE
5
119
100
AcDbEntity
8
0
100
AcDbCircle
10
-24.67033306029321
20
44.11317663907613
30
0
40
1.45
210
0
220
0
230
1
0
CIRCLE
5
120
100
AcDbEntity
8
0
100
AcDbCircle
10
-24.67033306029321
20
24.113176639076109
30
0
40
1.45
210
0
220
0
230
1
0
CIRCLE
5
121
100
AcDbEntity
8
0
100
AcDbCircle
10
-46.811075479136619
20
63.294541119296056
30
0
40
2.1100000000000132
210
0
220
0
230
1
0
LWPOLYLINE
5
122
100
AcDbEntity
8
0
100
AcDbPolyline
90
8
70
1
43
0.0
10
-38.724867999076181
20
51.122729685373251
42
-0.9999999925494194
10
-39.481472254945388
20
51.879333941242372
10
-39.481472254945388
20
52.462125429504162
42
-0.99999999999999989
10
-38.724867999076181
20
53.218729685373198
10
-30.625994992466062
20
53.218729685373198
42
-0.99999999999999989
10
-29.869390736596841
20
52.462125429504162
10
-29.869390736596841
20
51.879333941242372
42
-0.99999999999999989
10
-30.625994992466062
20
51.122729685373251
0
CIRCLE
5
123
100
AcDbEntity
8
0
100
AcDbCircle
10
-22.539787512405578
20
63.294541119296056
30
0
40
2.1100000000000132
210
0
220
0
230
1
0
CIRCLE
5
124
100
AcDbEntity
8
0
100
AcDbCircle
10
-34.670333060293146
20
60.654900255026767
30
0
40
2.1100000000000132
210
0
220
0
230
1
0
ENDSEC
0
SECTION
2
OBJECTS
0
DICTIONARY
5
C
100
AcDbDictionary
3
ACAD_GROUP
350
D
3
ACAD_MLINESTYLE
350
17
0
DICTIONARY
5
D
100
AcDbDictionary
0
DICTIONARY
5
1A
330
C
100
AcDbDictionary
0
DICTIONARY
5
17
100
AcDbDictionary
0
ENDSEC
0
EOF
