0
SECTION
2
HEADER
9
$INSUNITS
70
4
9
$ACADVER
1
AC1014
9
$HANDSEED
5
FFFF
0
ENDSEC
0
SECTION
2
TABLES
0
TABLE
2
VPORT
5
8
100
AcDbSymbolTable
0
ENDTAB
0
TABLE
2
LTYPE
5
5
100
AcDbSymbolTable
0
LTYPE
5
14
100
AcDbSymbolTableRecord
100
AcDbLinetypeTableRecord
2
BYBLOCK
70
0
0
LTYPE
5
15
100
AcDbSymbolTableRecord
100
AcDbLinetypeTableRecord
2
BYLAYER
70
0
0
ENDTAB
0
TABLE
2
LAYER
5
2
100
AcDbSymbolTable
70
2
0
LAYER
5
50
100
AcDbSymbolTableRecord
100
AcDbLayerTableRecord
2
0
70
0
6
CONTINUOUS
0
ENDTAB
0
TABLE
2
STYLE
5
3
100
AcDbSymbolTable
70
1
0
STYLE
5
11
100
AcDbSymbolTableRecord
100
AcDbTextStyleTableRecord
2
STANDARD
70
0
0
ENDTAB
0
TABLE
2
VIEW
5
6
100
AcDbSymbolTable
70
0
0
ENDTAB
0
TABLE
2
UCS
5
7
100
AcDbSymbolTable
70
0
0
ENDTAB
0
TABLE
2
APPID
5
9
100
AcDbSymbolTable
70
2
0
APPID
5
12
100
AcDbSymbolTableRecord
100
AcDbRegAppTableRecord
2
ACAD
70
0
0
ENDTAB
0
TABLE
2
DIMSTYLE
5
A
100
AcDbSymbolTable
70
1
0
ENDTAB
0
TABLE
2
BLOCK_RECORD
5
1
100
AcDbSymbolTable
70
1
0
BLOCK_RECORD
5
1F
100
AcDbSymbolTableRecord
100
AcDbBlockTableRecord
2
*MODEL_SPACE
0
BLOCK_RECORD
5
1B
100
AcDbSymbolTableRecord
100
AcDbBlockTableRecord
2
*PAPER_SPACE
0
ENDTAB
0
ENDSEC
0
SECTION
2
BLOCKS
0
BLOCK
5
20
100
AcDbEntity
100
AcDbBlockBegin
2
*MODEL_SPACE
0
ENDBLK
5
21
100
AcDbEntity
100
AcDbBlockEnd
0
BLOCK
5
1C
100
AcDbEntity
100
AcDbBlockBegin
2
*PAPER_SPACE
0
ENDBLK
5
1D
100
AcDbEntity
100
AcDbBlockEnd
0
ENDSEC
0
SECTION
2
ENTITIES
0
LWPOLYLINE
5
100
100
AcDbEntity
8
0
100
AcDbPolyline
90
23
70
1
43
0.0
10
-225.65332530683128
20
220.9551994290357
42
0.40028469227514279
10
-220.62785739513038
20
220.47217382796927
42
-0.98335188626330861
10
-215.01720836060386
20
213.56891947379285
42
0.4022595271419796
10
-215.56565684053487
20
208.44512783402968
42
-0.36254696044123536
10
-215.7785446167631
20
202.74737928873361
42
0.080997526112759316
10
-216.64881312014202
20
201.3935790190956
42
0.10372847386847334
10
-220.33055276471831
20
183.50322306653982
10
-220.24062703495716
20
159.56513708860464
42
0.070919217187615041
10
-217.39449313144377
20
140.12305868749098
42
0.03483094356154507
10
-217.15160955968528
20
139.47105401829214
42
0.061935484401328456
10
-215.53890245152729
20
136.84030596758629
42
0.065136361705354251
10
-214.31986118996375
20
135.52095251691748
42
-0.14547768596418914
10
-211.61692040405563
20
132.16991964503083
42
0.062702064561348456
10
-210.58550964803538
20
130.69922355897154
10
-221.86527403291396
20
121.60097344417657
10
-228.92886431864949
20
130.35822161048623
42
0.28195507180551771
10
-229.28441594191617
20
133.47428595096187
42
-0.13500381510937975
10
-229.53444140684994
20
133.95062748048665
42
-0.17618101206959227
10
-230.33348830010203
20
140.9886747564708
42
0.047658899689411956
10
-230.2645072391652
20
141.47644850671892
42
-0.00062347760010152413
10
-228.20244821001427
20
185.79958150945032
42
0.097026376521526972
10
-232.52384377554478
20
214.9919608149514
42
0.049832196479940361
10
-232.94729643379674
20
215.8914451493531
42
-0.93489244457859
0
LINE
5
101
100
AcDbEntity
8
0
100
AcDbLine
10
-215.53890245152729
20
136.84030596758629
30
0
11
-226.81860705064381
21
127.74198173202051
31
0
0
CIRCLE
5
102
100
AcDbEntity
8
0
100
AcDbCircle
10
-217.880482383691
20
216.97344794609336
30
0
40
1.5000000000000226
210
0
220
0
230
1
0
CIRCLE
5
103
100
AcDbEntity
8
0
100
AcDbCircle
10
-224.08613003769202
20
140.46923781826581
30
0
40
1.4499999999999955
210
0
220
0
230
1
0
CIRCLE
5
104
100
AcDbEntity
8
0
100
AcDbCircle
10
-218.52488798748226
20
129.37011956772204
30
0
40
1.4499999999999933
210
0
220
0
230
1
0
CIRCLE
5
105
100
AcDbEntity
8
0
100
AcDbCircle
10
-219.08467460324601
20
205.72381600840231
30
0
40
1.4999999999999811
210
0
220
0
230
1
0
CIRCLE
5
106
100
AcDbEntity
8
0
100
AcDbCircle
10
-224.08782408641929
20
211.94969138330725
30
0
40
3.5000000000000009
210
0
220
0
230
1
0
CIRCLE
5
107
100
AcDbEntity
8
0
100
AcDbCircle
10
-218.52488798748226
20
129.37011956772204
30
0
40
1.4499999999999955
210
0
220
0
230
1
0
CIRCLE
5
108
100
AcDbEntity
8
0
100
AcDbCircle
10
-229.12972651442112
20
218.17760788484679
30
0
40
1.5000000000000033
210
0
220
0
230
1
0
ENDSEC
0
SECTION
2
OBJECTS
0
DICTIONARY
5
C
100
AcDbDictionary
3
ACAD_GROUP
350
D
3
ACAD_MLINESTYLE
350
17
0
DICTIONARY
5
D
100
AcDbDictionary
0
DICTIONARY
5
1A
330
C
100
AcDbDictionary
0
DICTIONARY
5
17
100
AcDbDictionary
0
ENDSEC
0
EOF
