0
SECTION
2
HEADER
9
$INSUNITS
70
4
9
$ACADVER
1
AC1014
9
$HANDSEED
5
FFFF
0
ENDSEC
0
SECTION
2
TABLES
0
TABLE
2
VPORT
5
8
100
AcDbSymbolTable
0
ENDTAB
0
TABLE
2
LTYPE
5
5
100
AcDbSymbolTable
0
LTYPE
5
14
100
AcDbSymbolTableRecord
100
AcDbLinetypeTableRecord
2
BYBLOCK
70
0
0
LTYPE
5
15
100
AcDbSymbolTableRecord
100
AcDbLinetypeTableRecord
2
BYLAYER
70
0
0
ENDTAB
0
TABLE
2
LAYER
5
2
100
AcDbSymbolTable
70
2
0
LAYER
5
50
100
AcDbSymbolTableRecord
100
AcDbLayerTableRecord
2
0
70
0
6
CONTINUOUS
0
ENDTAB
0
TABLE
2
STYLE
5
3
100
AcDbSymbolTable
70
1
0
STYLE
5
11
100
AcDbSymbolTableRecord
100
AcDbTextStyleTableRecord
2
STANDARD
70
0
0
ENDTAB
0
TABLE
2
VIEW
5
6
100
AcDbSymbolTable
70
0
0
ENDTAB
0
TABLE
2
UCS
5
7
100
AcDbSymbolTable
70
0
0
ENDTAB
0
TABLE
2
APPID
5
9
100
AcDbSymbolTable
70
2
0
APPID
5
12
100
AcDbSymbolTableRecord
100
AcDbRegAppTableRecord
2
ACAD
70
0
0
ENDTAB
0
TABLE
2
DIMSTYLE
5
A
100
AcDbSymbolTable
70
1
0
ENDTAB
0
TABLE
2
BLOCK_RECORD
5
1
100
AcDbSymbolTable
70
1
0
BLOCK_RECORD
5
1F
100
AcDbSymbolTableRecord
100
AcDbBlockTableRecord
2
*MODEL_SPACE
0
BLOCK_RECORD
5
1B
100
AcDbSymbolTableRecord
100
AcDbBlockTableRecord
2
*PAPER_SPACE
0
ENDTAB
0
ENDSEC
0
SECTION
2
BLOCKS
0
BLOCK
5
20
100
AcDbEntity
100
AcDbBlockBegin
2
*MODEL_SPACE
0
ENDBLK
5
21
100
AcDbEntity
100
AcDbBlockEnd
0
BLOCK
5
1C
100
AcDbEntity
100
AcDbBlockBegin
2
*PAPER_SPACE
0
ENDBLK
5
1D
100
AcDbEntity
100
AcDbBlockEnd
0
ENDSEC
0
SECTION
2
ENTITIES
0
ARC
5
100
100
AcDbEntity
8
0
100
AcDbCircle
10
18.335905781615132
20
97.841221068291702
30
0
40
4.0000000000000151
210
-0
220
0
230
1
100
AcDbArc
50
277.0743653773539
51
302.11640727552748
0
CIRCLE
5
101
100
AcDbEntity
8
0
100
AcDbCircle
10
34.369486063218034
20
54.364830413878281
30
0
40
1.45
210
0
220
0
230
1
0
ARC
5
102
100
AcDbEntity
8
0
100
AcDbCircle
10
-36.500031611106856
20
90.752194894107632
30
0
40
5.0000000000031806
210
0
220
0
230
-1
100
AcDbArc
50
54.089161255082793
51
213.8782701397414
0
ARC
5
103
100
AcDbEntity
8
0
100
AcDbCircle
10
-24.458683463879254
20
40.21694725614811
30
0
40
7.1620142971565928
210
0
220
-0
230
-1
100
AcDbArc
50
237.88359272450643
51
270.75438407626865
0
CIRCLE
5
104
100
AcDbEntity
8
0
100
AcDbCircle
10
14.369486063218169
20
54.364830413878281
30
0
40
1.45
210
0
220
0
230
1
0
ARC
5
105
100
AcDbEntity
8
0
100
AcDbCircle
10
18.117222481983699
20
29.843040378364435
30
0
40
4.9410358805313059
210
0
220
-0
230
1
100
AcDbArc
50
81.722920102484466
51
126.74287424420713
0
ARC
5
106
100
AcDbEntity
8
0
100
AcDbCircle
10
-36.500031611106962
20
37.852085364100788
30
0
40
4.9999999999999813
210
0
220
0
230
-1
100
AcDbArc
50
146.12172986025217
51
305.91083874491159
0
ARC
5
107
100
AcDbEntity
8
0
100
AcDbCircle
10
-19.88782137360711
20
56.36042607785253
30
0
40
32.081489633299199
210
-0
220
0
230
1
100
AcDbArc
50
330.65683820858277
51
357.03654760064137
0
ARC
5
108
100
AcDbEntity
8
0
100
AcDbCircle
10
30.600446832657589
20
29.799255854492159
30
0
40
4.9827955157398574
210
0
220
-0
230
1
100
AcDbArc
50
53.455979192914569
51
98.078226460284498
0
LWPOLYLINE
5
109
100
AcDbEntity
8
0
100
AcDbPolyline
90
8
70
1
43
0.0
10
20.314951124436256
20
50.149277367581163
10
28.413824131046368
20
50.149277367581163
42
-0.99999999999999989
10
29.170428386915592
20
49.392673111712035
10
29.170428386915592
20
48.809881623450252
42
-0.99999999999999989
10
28.413824131046368
20
48.053277367581217
10
20.314951124436263
20
48.053277367581217
42
-0.99999999999999989
10
19.558346868567043
20
48.809881623450252
10
19.558346868567043
20
49.392673111712035
42
-0.99999999999999989
0
LWPOLYLINE
5
110
100
AcDbEntity
8
0
100
AcDbPolyline
90
8
70
1
43
0.0
10
28.413824131043988
20
78.580383460175483
10
20.314951124433883
20
78.580383460175483
42
-0.99999999999999989
10
19.558346868564655
20
79.336987716044533
10
19.558346868564662
20
79.919779204306408
42
-0.99999999999999989
10
20.314951124433875
20
80.676383460175472
10
28.413824131043988
20
80.676383460175472
42
-0.99999999999999989
10
29.170428386913223
20
79.919779204306408
10
29.170428386913212
20
79.336987716044547
42
-0.99999999999999989
0
ARC
5
111
100
AcDbEntity
8
0
100
AcDbCircle
10
30.392869473856283
20
97.841221068297443
30
0
40
4.0000000000001092
210
0
220
0
230
1
100
AcDbArc
50
237.883592724523
51
262.92563462270533
0
ARC
5
112
100
AcDbEntity
8
0
100
AcDbCircle
10
-12.228743644395266
20
90.752194894075714
30
0
40
5.0000000000054428
210
-0
220
0
230
-1
100
AcDbArc
50
-33.878270139280623
51
125.91083874449932
0
CIRCLE
5
113
100
AcDbEntity
8
0
100
AcDbCircle
10
12.228743644373434
20
90.752194894098395
30
0
40
2.1100000000000132
210
0
220
0
230
1
0
LWPOLYLINE
5
114
100
AcDbEntity
8
0
100
AcDbPolyline
90
6
70
1
43
0.0
10
25.869486063217984
20
69.708983728510916
10
25.869486063217984
20
66.364830413878437
42
0.4142135623730846
10
26.369486063217991
20
65.864830413878451
10
29.713639377850527
20
65.864830413878451
42
0.66817863791932464
10
30.067192768443796
20
66.718383804471642
10
26.723039453811268
20
70.062537119104206
42
0.66817863791931642
0
ARC
5
115
100
AcDbEntity
8
0
100
AcDbCircle
10
18.33590578161731
20
30.763059189919126
30
0
40
3.9999999999999938
210
0
220
-0
230
1
100
AcDbArc
50
57.883592724468876
51
82.92563462264313
0
ARC
5
116
100
AcDbEntity
8
0
100
AcDbCircle
10
18.174743630535382
20
98.988013652494104
30
0
40
5.1579444322702441
210
0
220
0
230
1
100
AcDbArc
50
234.25212478975502
51
277.28208086355767
0
LWPOLYLINE
5
117
100
AcDbEntity
8
0
100
AcDbPolyline
90
6
70
1
43
0.0
10
19.025332748585448
20
65.864830413878451
42
-0.66817863791928533
10
18.6717793579922
20
66.718383804471614
10
22.015932672624725
20
70.062537119104206
42
-0.66817863791928078
10
22.869486063217987
20
69.708983728510916
10
22.869486063217987
20
66.364830413878437
42
-0.41421356237310542
10
22.36948606321798
20
65.864830413878451
0
LWPOLYLINE
5
118
100
AcDbEntity
8
0
100
AcDbPolyline
90
6
70
1
43
0.0
10
30.067192768443796
20
62.011277023285103
10
26.723039453811268
20
58.667123708652646
42
-0.66817863791928844
10
25.869486063217995
20
59.020677099245795
10
25.869486063217984
20
62.36483041387843
42
-0.41421356237309503
10
26.369486063217991
20
62.864830413878437
10
29.713639377850527
20
62.864830413878437
42
-0.6681786379193061
0
ARC
5
119
100
AcDbEntity
8
0
100
AcDbCircle
10
30.551597909097737
20
98.997608435214545
30
0
40
5.1671546158320982
210
0
220
0
230
1
100
AcDbArc
50
262.75817320072809
51
305.70762114607538
0
ARC
5
120
100
AcDbEntity
8
0
100
AcDbCircle
10
68.616596628968395
20
56.360426077791587
30
0
40
32.081489633174847
210
0
220
0
230
1
100
AcDbArc
50
182.96345239926106
51
209.34316179131906
0
ARC
5
121
100
AcDbEntity
8
0
100
AcDbCircle
10
-24.270091791603193
20
88.387333002062547
30
0
40
7.1620142971565652
210
0
220
0
230
-1
100
AcDbArc
50
57.883592724454488
51
90.754384076221072
0
ARC
5
122
100
AcDbEntity
8
0
100
AcDbCircle
10
-24.27009179160752
20
40.216947256154967
30
0
40
7.1620142971633971
210
0
220
-0
230
-1
100
AcDbArc
50
269.24561592376335
51
302.11640727552964
0
ARC
5
123
100
AcDbEntity
8
0
100
AcDbCircle
10
-24.458683463875222
20
88.387333002056351
30
0
40
7.1620142971628571
210
0
220
0
230
-1
100
AcDbArc
50
89.245615923713444
51
122.11640727547554
0
CIRCLE
5
124
100
AcDbEntity
8
0
100
AcDbCircle
10
14.369486063218169
20
74.364830413878295
30
0
40
1.45
210
0
220
0
230
1
0
ARC
5
125
100
AcDbEntity
8
0
100
AcDbCircle
10
30.392869473858084
20
30.763059189914046
30
0
40
3.9999999999992437
210
0
220
0
230
1
100
AcDbArc
50
97.074365377289553
51
122.1164072754711
0
ARC
5
126
100
AcDbEntity
8
0
100
AcDbCircle
10
-12.228743644375788
20
37.852085364112369
30
0
40
5.0000000000000133
210
0
220
-0
230
-1
100
AcDbArc
50
-125.91083874485366
51
33.878270138926425
0
CIRCLE
5
127
100
AcDbEntity
8
0
100
AcDbCircle
10
34.369486063218034
20
74.364830413878295
30
0
40
1.45
210
0
220
0
230
1
0
LWPOLYLINE
5
128
100
AcDbEntity
8
0
100
AcDbPolyline
90
6
70
1
43
0.0
10
22.869486063217987
20
62.36483041387843
42
0.41421356237309503
10
22.36948606321798
20
62.864830413878437
10
19.025332748585448
20
62.864830413878437
42
0.66817863791929799
10
18.6717793579922
20
62.011277023285103
10
22.015932672624725
20
58.667123708652646
42
0.66817863791928378
10
22.869486063217987
20
59.020677099245795
0
CIRCLE
5
129
100
AcDbEntity
8
0
100
AcDbCircle
10
24.369486063216907
20
88.112554029828942
30
0
40
2.1100000000000132
210
0
220
0
230
1
0
CIRCLE
5
130
100
AcDbEntity
8
0
100
AcDbCircle
10
36.500031611104475
20
90.752194894098395
30
0
40
2.1100000000000132
210
0
220
0
230
1
0
CIRCLE
5
131
100
AcDbEntity
8
0
100
AcDbCircle
10
24.369486063219288
20
40.61710679792764
30
0
40
2.1100000000000132
210
0
220
0
230
1
0
CIRCLE
5
132
100
AcDbEntity
8
0
100
AcDbCircle
10
36.500031611106856
20
37.977465933658358
30
0
40
2.1100000000000132
210
0
220
0
230
1
0
CIRCLE
5
133
100
AcDbEntity
8
0
100
AcDbCircle
10
12.228743644375815
20
37.977465933658358
30
0
40
2.1100000000000132
210
0
220
0
230
1
0
CIRCLE
5
134
100
AcDbEntity
8
0
100
AcDbCircle
10
66.598071517000946
20
37.977465933658358
30
0
40
1.5
210
0
220
-0
230
1
0
CIRCLE
5
135
100
AcDbEntity
8
0
100
AcDbCircle
10
66.598071516988043
20
90.752194894126291
30
0
40
1.4750000000000016
210
0
220
-0
230
1
0
ARC
5
136
100
AcDbEntity
8
0
100
AcDbCircle
10
-19.887821373482979
20
72.243854180406203
30
0
40
32.081489633170392
210
0
220
-0
230
1
100
AcDbArc
50
2.963452399284332
51
29.343161791343036
0
ARC
5
137
100
AcDbEntity
8
0
100
AcDbCircle
10
68.616596628960437
20
72.243854180406288
30
0
40
32.081489633169923
210
0
220
0
230
1
100
AcDbArc
50
150.65683820865709
51
177.03654760071578
0
LINE
5
138
100
AcDbEntity
8
0
100
AcDbLine
10
36.578009076637898
20
73.902433311877886
30
0
11
36.578009076640271
21
54.701846946332644
31
0
0
LINE
5
139
100
AcDbEntity
8
0
100
AcDbLine
10
12.150766178840016
20
73.902433311877886
30
0
11
12.150766178842369
21
54.701846946332623
31
0
0
ENDSEC
0
SECTION
2
OBJECTS
0
DICTIONARY
5
C
100
AcDbDictionary
3
ACAD_GROUP
350
D
3
ACAD_MLINESTYLE
350
17
0
DICTIONARY
5
D
100
AcDbDictionary
0
DICTIONARY
5
1A
330
C
100
AcDbDictionary
0
DICTIONARY
5
17
100
AcDbDictionary
0
ENDSEC
0
EOF
