0
SECTION
2
HEADER
9
$INSUNITS
70
4
9
$ACADVER
1
AC1014
9
$HANDSEED
5
FFFF
0
ENDSEC
0
SECTION
2
TABLES
0
TABLE
2
VPORT
5
8
100
AcDbSymbolTable
0
ENDTAB
0
TABLE
2
LTYPE
5
5
100
AcDbSymbolTable
0
LTYPE
5
14
100
AcDbSymbolTableRecord
100
AcDbLinetypeTableRecord
2
BYBLOCK
70
0
0
LTYPE
5
15
100
AcDbSymbolTableRecord
100
AcDbLinetypeTableRecord
2
BYLAYER
70
0
0
ENDTAB
0
TABLE
2
LAYER
5
2
100
AcDbSymbolTable
70
2
0
LAYER
5
50
100
AcDbSymbolTableRecord
100
AcDbLayerTableRecord
2
0
70
0
6
CONTINUOUS
0
ENDTAB
0
TABLE
2
STYLE
5
3
100
AcDbSymbolTable
70
1
0
STYLE
5
11
100
AcDbSymbolTableRecord
100
AcDbTextStyleTableRecord
2
STANDARD
70
0
0
ENDTAB
0
TABLE
2
VIEW
5
6
100
AcDbSymbolTable
70
0
0
ENDTAB
0
TABLE
2
UCS
5
7
100
AcDbSymbolTable
70
0
0
ENDTAB
0
TABLE
2
APPID
5
9
100
AcDbSymbolTable
70
2
0
APPID
5
12
100
AcDbSymbolTableRecord
100
AcDbRegAppTableRecord
2
ACAD
70
0
0
ENDTAB
0
TABLE
2
DIMSTYLE
5
A
100
AcDbSymbolTable
70
1
0
ENDTAB
0
TABLE
2
BLOCK_RECORD
5
1
100
AcDbSymbolTable
70
1
0
BLOCK_RECORD
5
1F
100
AcDbSymbolTableRecord
100
AcDbBlockTableRecord
2
*MODEL_SPACE
0
BLOCK_RECORD
5
1B
100
AcDbSymbolTableRecord
100
AcDbBlockTableRecord
2
*PAPER_SPACE
0
ENDTAB
0
ENDSEC
0
SECTION
2
BLOCKS
0
BLOCK
5
20
100
AcDbEntity
100
AcDbBlockBegin
2
*MODEL_SPACE
0
ENDBLK
5
21
100
AcDbEntity
100
AcDbBlockEnd
0
BLOCK
5
1C
100
AcDbEntity
100
AcDbBlockBegin
2
*PAPER_SPACE
0
ENDBLK
5
1D
100
AcDbEntity
100
AcDbBlockEnd
0
ENDSEC
0
SECTION
2
ENTITIES
0
CIRCLE
5
100
100
AcDbEntity
8
0
100
AcDbCircle
10
-24.885881227622018
20
-35.637228960467908
30
0
40
1.0000000000000009
210
0
220
0
230
1
0
CIRCLE
5
101
100
AcDbEntity
8
0
100
AcDbCircle
10
-24.885881227622018
20
-10.137228960467905
30
0
40
1.0000000000000009
210
0
220
0
230
1
0
CIRCLE
5
102
100
AcDbEntity
8
0
100
AcDbCircle
10
0.61411877237798285
20
-35.637228960467908
30
0
40
1
210
0
220
0
230
1
0
CIRCLE
5
103
100
AcDbEntity
8
0
100
AcDbCircle
10
0.61411877237798285
20
-10.137228960467905
30
0
40
1
210
0
220
0
230
1
0
LWPOLYLINE
5
104
100
AcDbEntity
8
0
100
AcDbPolyline
90
34
70
1
43
0.0
10
3.4722694772914684
20
3.5976860170230762
42
0.10977857823693522
10
-1.2327976300606136
20
4.7728084502675738
42
0.22557162767676014
10
-2.409050470800131
20
4.2482981530925041
42
-0.048190371581542872
10
-3.544499478923
20
3.1354473393511206
42
0.16163050322613731
10
-3.9041889156520142
20
2.5652510787879712
42
-0.063087838630017282
10
-4.2661556702736156
20
1.6272655031875194
42
-0.59705125340566634
10
-20.005132296467131
20
1.6272655032143435
42
-0.063087838628416992
10
-20.367099051079471
20
2.5652510787912117
42
0.16163050322538741
10
-20.726788487807795
20
3.1354473393511242
42
-0.048190371581545093
10
-21.862237495930657
20
4.2482981530924944
42
0.22557162767675756
10
-23.038490336670186
20
4.7728084502675658
42
0.1097785782369345
10
-27.743557444041947
20
3.5976860170138196
42
0.22933216971823497
10
-29.922406739082923
20
-0.90289614033553511
10
-29.92240673908292
20
-45.847815464915456
42
0.28413750349826999
10
-27.74355744401835
20
-49.372414977486869
42
0.10977857823693517
10
-23.038490336657272
20
-50.5475374107356
42
0.22557162767676189
10
-21.862237495917775
20
-50.023027113560595
42
-0.048190371581548992
10
-20.72678848779498
20
-48.910176299819014
42
0.036250873682809485
10
-20.614475672346163
20
-48.803427202599003
42
-0.020778843419476202
10
-20.380793418398984
20
-48.567147990743607
42
0.20829224313664235
10
-19.743152100618577
20
-47.102914805427588
10
-19.743152100618662
20
-42.514728960454427
42
-0.41421356237309592
10
-15.333152100618747
20
-38.104728960454409
10
-8.938135866096939
20
-38.104728960454295
42
-0.41421356237309997
10
-4.5281358660969131
20
-42.51472896045442
10
-4.5281358661018247
20
-47.102914805405156
42
0.20829224313605127
10
-3.8904945483286197
20
-48.567147990719917
42
-0.020778843422589167
10
-3.6568122943674193
20
-48.803427202594989
42
0.036250873682796017
10
-3.5444994789188282
20
-48.910176299815106
42
-0.048190371581546765
10
-2.409050470795834
20
-50.02302711355658
42
0.22557162767676267
10
-1.2327976300564902
20
-50.547537410731508
42
0.10977857823693503
10
3.4722694773153755
20
-49.372414977477916
42
0.28413750349815275
10
5.6511187723779832
20
-45.847815464907967
10
5.6511187723780036
20
0.073086504417689824
42
0.28413750349837702
0
LWPOLYLINE
5
105
100
AcDbEntity
8
0
100
AcDbPolyline
90
4
70
1
43
0.0
10
-16.13564398335679
20
-34.864221949251103
10
-16.13564398335669
20
-31.940220182885941
42
-0.99999999999999989
10
-14.135643983356774
20
-31.940220182886144
10
-14.135643983356738
20
-34.864221949250819
42
-0.99999999999999989
0
CIRCLE
5
106
100
AcDbEntity
8
0
100
AcDbCircle
10
0
20
0
30
0
40
1.4999999999999991
210
-0
220
0
230
1
0
LWPOLYLINE
5
107
100
AcDbEntity
8
0
100
AcDbPolyline
90
10
70
1
43
0.0
10
-5.3991064150673331
20
-10.038226565548833
42
0.34334510138624735
10
-6.6464352749823288
20
-11.008535972432099
10
-8.7604410106643194
20
-19.350156448867978
42
0.1246556394400468
10
-8.7605491312060106
20
-19.981724056806005
10
-6.6493995889481328
20
-28.324067854182175
42
0.34334510138623048
10
-5.4024030242980112
20
-29.294804274439397
10
-5.3172646326229174
20
-29.294804274439397
42
0.44119118051165407
10
-4.0363060569913367
20
-27.891321599810102
42
-0.045728085347694007
10
-4.0334900632514117
20
-11.442176892919013
42
0.44119118051169753
10
-5.3139680283824333
20
-10.038255715899886
0
CIRCLE
5
108
100
AcDbEntity
8
0
100
AcDbCircle
10
-24.271287966730974
20
-2.9723755119640755e-15
30
0
40
1.5
210
-0
220
0
230
1
0
CIRCLE
5
109
100
AcDbEntity
8
0
100
AcDbCircle
10
-24.271287966718063
20
-45.774728960467911
30
0
40
1.5
210
-0
220
0
230
1
0
LWPOLYLINE
5
110
100
AcDbEntity
8
0
100
AcDbPolyline
90
12
70
1
43
0.0
10
-19.860295833465919
20
-19.66744316046411
10
-19.860296093098384
20
-19.665926562263575
42
0.022849997899241473
10
-20.237797903488193
20
-11.44217689291894
42
-0.44119118051168005
10
-18.957319938357063
20
-10.038255715899879
10
-18.872181551672302
20
-10.038226565548833
42
-0.34334510138624263
10
-17.62485269175729
20
-11.008535972432101
10
-15.510846956075145
20
-19.350156448867985
42
-0.12465563944003945
10
-15.510738835533468
20
-19.981724056806005
10
-17.621888377791379
20
-28.324067854182175
42
-0.34334510138622731
10
-18.868884942441472
20
-29.294804274439173
10
-18.954023334116783
20
-29.294804274439183
42
-0.44119118051165174
10
-20.234981909747862
20
-27.891321599810066
42
0.022849997899242695
0
LWPOLYLINE
5
111
100
AcDbEntity
8
0
100
AcDbPolyline
90
4
70
1
43
0.0
10
-13.597644866548018
20
-26.141681688482183
10
-10.673643100182924
20
-26.141681688482279
42
-0.99999999999999989
10
-10.673643100183021
20
-28.141681688482187
10
-13.597644866547737
20
-28.141681688482123
42
-0.99999999999999989
0
LWPOLYLINE
5
112
100
AcDbEntity
8
0
100
AcDbPolyline
90
4
70
1
43
0.0
10
-8.1356439833568395
20
-31.940220182886154
10
-8.1356439833568324
20
-34.864221949250847
42
-0.99999999999999989
10
-10.135643983356834
20
-34.864221949251096
10
-10.135643983356799
20
-31.940220182885994
42
-0.99999999999999989
0
LWPOLYLINE
5
113
100
AcDbEntity
8
0
100
AcDbPolyline
90
8
70
1
43
0.0
10
-12.625914255867507
20
-15.231058130022889
10
-14.20984688357464
20
-8.9695374868328255
42
-0.48882070432695041
10
-13.806153823799342
20
-8.4510600685735877
10
-10.462996955663829
20
-8.4513786211561559
42
-0.48882070432694441
10
-10.05940270942201
20
-8.9699329617573138
10
-11.644528565897616
20
-15.231151641323098
42
-0.34334510138623447
10
-12.048202159373337
20
-15.545333448185524
10
-12.222300543326007
20
-15.54531685922729
42
-0.34334510138621893
0
CIRCLE
5
114
100
AcDbEntity
8
0
100
AcDbCircle
10
1.2986333391447658e-11
20
-45.774728960467911
30
0
40
1.4999999999999991
210
-0
220
0
230
1
0
ENDSEC
0
SECTION
2
OBJECTS
0
DICTIONARY
5
C
100
AcDbDictionary
3
ACAD_GROUP
350
D
3
ACAD_MLINESTYLE
350
17
0
DICTIONARY
5
D
100
AcDbDictionary
0
DICTIONARY
5
1A
330
C
100
AcDbDictionary
0
DICTIONARY
5
17
100
AcDbDictionary
0
ENDSEC
0
EOF
