0
SECTION
2
HEADER
9
$INSUNITS
70
4
9
$ACADVER
1
AC1014
9
$HANDSEED
5
FFFF
0
ENDSEC
0
SECTION
2
TABLES
0
TABLE
2
VPORT
5
8
100
AcDbSymbolTable
0
ENDTAB
0
TABLE
2
LTYPE
5
5
100
AcDbSymbolTable
0
LTYPE
5
14
100
AcDbSymbolTableRecord
100
AcDbLinetypeTableRecord
2
BYBLOCK
70
0
0
LTYPE
5
15
100
AcDbSymbolTableRecord
100
AcDbLinetypeTableRecord
2
BYLAYER
70
0
0
ENDTAB
0
TABLE
2
LAYER
5
2
100
AcDbSymbolTable
70
2
0
LAYER
5
50
100
AcDbSymbolTableRecord
100
AcDbLayerTableRecord
2
0
70
0
6
CONTINUOUS
0
ENDTAB
0
TABLE
2
STYLE
5
3
100
AcDbSymbolTable
70
1
0
STYLE
5
11
100
AcDbSymbolTableRecord
100
AcDbTextStyleTableRecord
2
STANDARD
70
0
0
ENDTAB
0
TABLE
2
VIEW
5
6
100
AcDbSymbolTable
70
0
0
ENDTAB
0
TABLE
2
UCS
5
7
100
AcDbSymbolTable
70
0
0
ENDTAB
0
TABLE
2
APPID
5
9
100
AcDbSymbolTable
70
2
0
APPID
5
12
100
AcDbSymbolTableRecord
100
AcDbRegAppTableRecord
2
ACAD
70
0
0
ENDTAB
0
TABLE
2
DIMSTYLE
5
A
100
AcDbSymbolTable
70
1
0
ENDTAB
0
TABLE
2
BLOCK_RECORD
5
1
100
AcDbSymbolTable
70
1
0
BLOCK_RECORD
5
1F
100
AcDbSymbolTableRecord
100
AcDbBlockTableRecord
2
*MODEL_SPACE
0
BLOCK_RECORD
5
1B
100
AcDbSymbolTableRecord
100
AcDbBlockTableRecord
2
*PAPER_SPACE
0
ENDTAB
0
ENDSEC
0
SECTION
2
BLOCKS
0
BLOCK
5
20
100
AcDbEntity
100
AcDbBlockBegin
2
*MODEL_SPACE
0
ENDBLK
5
21
100
AcDbEntity
100
AcDbBlockEnd
0
BLOCK
5
1C
100
AcDbEntity
100
AcDbBlockBegin
2
*PAPER_SPACE
0
ENDBLK
5
1D
100
AcDbEntity
100
AcDbBlockEnd
0
ENDSEC
0
SECTION
2
ENTITIES
0
LWPOLYLINE
5
100
100
AcDbEntity
8
0
100
AcDbPolyline
90
4
70
1
43
0.0
10
-126.5256047880977
20
38.987796069797717
10
-126.5256047880977
20
28.987796069797724
42
-0.99999999999999989
10
-128.6456047880977
20
28.987796069797707
10
-128.6456047880977
20
38.987796069797717
42
-0.99999999999999989
0
LWPOLYLINE
5
101
100
AcDbEntity
8
0
100
AcDbPolyline
90
8
70
1
43
0.0
10
-123.27537789659054
20
42.001851153556267
42
0.046192690287375972
10
-123.27544999687433
20
25.973737654983424
42
0.02609830663285587
10
-123.27146912690559
20
25.9463803991483
42
0.97157252489329049
10
-121.1821318353004
20
26.300405429241632
42
-0.012951551730642899
10
-121.19522789770932
20
26.415690415870181
42
-0.044353806495878931
10
-121.17308167372695
20
41.808282646632819
42
0.026100332385594966
10
-121.17201433318314
20
41.836431587767379
42
0.90014925467255757
10
-123.27166992405537
20
42.027419374469872
42
0.025852959901202278
0
LWPOLYLINE
5
102
100
AcDbEntity
8
0
100
AcDbPolyline
90
8
70
1
43
0.0
10
-133.989077740895
20
26.300405429241632
42
0.97157252489329049
10
-131.89974044928982
20
25.9463803991483
42
0.02609830663285587
10
-131.89575957932104
20
25.973737654983424
42
0.046192690287376277
10
-131.89583167960484
20
42.001851153556267
42
0.025852959901202278
10
-131.89953965214002
20
42.027419374469872
42
0.90014925467255757
10
-133.99919524301225
20
41.836431587767379
42
0.026100332385594966
10
-133.99812790246844
20
41.808282646632819
42
-0.044353806495878931
10
-133.97598167848611
20
26.415690415870184
42
-0.012951551730642899
0
ARC
5
103
100
AcDbEntity
8
0
100
AcDbCircle
10
-127.58560478809549
20
69.037477568777831
30
0
40
8.9395393768335332
210
0
220
0
230
1
100
AcDbArc
50
208.32126715077433
51
331.67873284903015
0
LINE
5
104
100
AcDbEntity
8
0
100
AcDbLine
10
-119.97809667084262
20
3.4782457443657484
30
0
11
-119.9780966708377
21
8.066431589316494
31
0
0
ARC
5
105
100
AcDbEntity
8
0
100
AcDbCircle
10
139.72124877145856
20
4.8064315892943883
30
0
40
4.9999999999984954
210
-0
220
0
230
-1
100
AcDbArc
50
-46.016284302731556
51
33.87827013970886
0
LWPOLYLINE
5
106
100
AcDbEntity
8
0
100
AcDbPolyline
90
7
70
1
43
0.0
10
-129.58560478809756
20
15.716938600519828
10
-129.58560478809756
20
21.434940366876596
42
0.41421356237309243
10
-130.58560478809741
20
22.434940366876653
42
0.41421356237308982
10
-131.58560478809758
20
21.434940366876596
10
-131.58560478809758
20
16.046438600519814
10
-131.58560478809758
20
15.716938600519828
42
0.41421356237309309
10
-130.58560478809741
20
14.716938600519933
42
0.41421356237310086
0
ARC
5
107
100
AcDbEntity
8
0
100
AcDbCircle
10
136.85580837510238
20
2.4978934122174845
30
0
40
1.0700000001191512
210
0
220
-0
230
-1
100
AcDbArc
50
222.30265527197207
51
230.60710711035236
0
ARC
5
108
100
AcDbEntity
8
0
100
AcDbCircle
10
-124.18652964817414
20
-4.7621967420411666
30
0
40
8.2670068320838901
210
0
220
-0
230
1
100
AcDbArc
50
40.057933075552818
51
51.093815058705417
0
ARC
5
109
100
AcDbEntity
8
0
100
AcDbCircle
10
139.72124877147175
20
63.16916054974287
30
0
40
4.9999999999996163
210
-0
220
0
230
-1
100
AcDbArc
50
-33.878270139728336
51
46.016284302712307
0
ARC
5
110
100
AcDbEntity
8
0
100
AcDbCircle
10
137.19311290535938
20
3.4782457443434249
30
0
40
2.0000000000000462
210
0
220
-0
230
-1
100
AcDbArc
50
180
51
227.06413020423477
0
CIRCLE
5
111
100
AcDbEntity
8
0
100
AcDbCircle
10
-137.5856047880977
20
43.987796069522943
30
0
40
1.4750000000000039
210
0
220
0
230
1
0
ARC
5
112
100
AcDbEntity
8
0
100
AcDbCircle
10
116.97409369489282
20
11.206958092865491
30
0
40
11.177132468758108
210
0
220
-0
230
-1
100
AcDbArc
50
243.44734611129792
51
268.50639942103703
0
ARC
5
113
100
AcDbEntity
8
0
100
AcDbCircle
10
-127.58521215609045
20
48.223835382625417
30
0
40
0.59999998658895848
210
0
220
0
230
1
100
AcDbArc
50
192.31448510907882
51
346.27120076748503
0
LINE
5
114
100
AcDbEntity
8
0
100
AcDbLine
10
-124.38809667083773
20
12.476431589316626
30
0
11
-130.78311290535953
21
12.476431589316485
31
0
0
LINE
5
115
100
AcDbEntity
8
0
100
AcDbLine
10
-129.65143534348752
20
54.144438822913131
30
0
11
-128.16790358158107
21
48.081550570960509
31
0
0
LWPOLYLINE
5
116
100
AcDbEntity
8
0
100
AcDbPolyline
90
7
70
1
43
0.0
10
-123.58560478809761
20
15.716938600519828
10
-123.58560478809761
20
21.434940366876596
42
0.41421356237309503
10
-124.5856047880975
20
22.434940366876653
42
0.41421356237308982
10
-125.58560478809761
20
21.434940366876596
10
-125.58560478809761
20
16.046438600519814
10
-125.58560478809761
20
15.716938600519828
42
0.41421356237309698
10
-124.5856047880975
20
14.716938600519935
42
0.41421356237309309
0
ARC
5
117
100
AcDbEntity
8
0
100
AcDbCircle
10
-123.23732175476923
20
66.694086027149325
30
0
40
3.9999999999999725
210
-0
220
0
230
1
100
AcDbArc
50
331.67873284902953
51
346.11826389994246
0
ARC
5
118
100
AcDbEntity
8
0
100
AcDbCircle
10
-122.06517271758517
20
-0.91445381150524163
30
0
40
3.999999999996569
210
0
220
-0
230
1
100
AcDbArc
50
42.302655270703703
51
47.064130202691167
0
CIRCLE
5
119
100
AcDbEntity
8
0
100
AcDbCircle
10
-139.72124877145885
20
4.8064315893030019
30
0
40
1.5
210
0
220
0
230
1
0
LINE
5
120
100
AcDbEntity
8
0
100
AcDbLine
10
-129.07244302426119
20
54.901817011608117
30
0
11
-126.09657220514954
21
54.901533458587352
31
0
0
ARC
5
121
100
AcDbEntity
8
0
100
AcDbCircle
10
116.97409369487789
20
56.768634046229785
30
0
40
11.177132468708578
210
0
220
0
230
-1
100
AcDbArc
50
91.493600578915135
51
116.55265388865473
0
LINE
5
122
100
AcDbEntity
8
0
100
AcDbLine
10
-135.19311290535944
20
8.066431589316494
30
0
11
-135.19311290535936
21
3.478245744343325
31
0
0
ARC
5
123
100
AcDbEntity
8
0
100
AcDbCircle
10
138.19711588130804
20
11.206958092834673
30
0
40
11.17713246873125
210
-0
220
0
230
-1
100
AcDbArc
50
271.49360057893819
51
296.5526538886773
0
ARC
5
124
100
AcDbEntity
8
0
100
AcDbCircle
10
115.44996080473265
20
63.169160549728062
30
0
40
5.0000000000094333
210
0
220
0
230
-1
100
AcDbArc
50
133.98371569700743
51
213.87827013944931
0
ARC
5
125
100
AcDbEntity
8
0
100
AcDbCircle
10
-130.98467992802046
20
-4.7621967420442228
30
0
40
8.2670068320837089
210
0
220
0
230
1
100
AcDbArc
50
128.90618494130234
51
139.94206692445479
0
ARC
5
126
100
AcDbEntity
8
0
100
AcDbCircle
10
116.71915115970125
20
1.5331815972446117
30
0
40
1.5000000000002378
210
0
220
-0
230
-1
100
AcDbArc
50
268.60976389214881
51
319.45597732602903
0
ARC
5
127
100
AcDbEntity
8
0
100
AcDbCircle
10
118.31540120109224
20
2.4978934122197423
30
0
40
1.0700000001183561
210
-0
220
0
230
-1
100
AcDbArc
50
309.39289288973379
51
317.69734472811564
0
CIRCLE
5
128
100
AcDbEntity
8
0
100
AcDbCircle
10
-137.5856047880977
20
23.98779606952294
30
0
40
1.4750000000000039
210
0
220
0
230
1
0
CIRCLE
5
129
100
AcDbEntity
8
0
100
AcDbCircle
10
-117.5856047880977
20
43.987796069522943
30
0
40
1.4749999999999983
210
0
220
0
230
1
0
CIRCLE
5
130
100
AcDbEntity
8
0
100
AcDbCircle
10
-115.44996080472779
20
4.8064315893030019
30
0
40
1.5
210
0
220
0
230
1
0
ARC
5
131
100
AcDbEntity
8
0
100
AcDbCircle
10
-133.10603685842977
20
-0.91445381176943108
30
0
40
4.0000000003049578
210
0
220
0
230
1
100
AcDbArc
50
132.93586979699899
51
137.6973447282771
0
ARC
5
132
100
AcDbEntity
8
0
100
AcDbCircle
10
-130.7831129053595
20
8.0664315893165401
30
0
40
4.4099999999999451
210
0
220
0
230
1
100
AcDbArc
50
90.000000000000369
51
180
0
LINE
5
133
100
AcDbEntity
8
0
100
AcDbLine
10
-125.51766705841575
20
54.144044936949982
30
0
11
-127.00235419755342
21
48.081439511629149
31
0
0
ARC
5
134
100
AcDbEntity
8
0
100
AcDbCircle
10
138.45205841649405
20
1.5331815972407172
30
0
40
1.5000000000004237
210
0
220
-0
230
-1
100
AcDbArc
50
220.54402267397066
51
271.39023610785154
0
ARC
5
135
100
AcDbEntity
8
0
100
AcDbCircle
10
116.71915115969689
20
66.442410541801195
30
0
40
1.500000000000461
210
0
220
0
230
-1
100
AcDbArc
50
40.544022673966438
51
91.390236107848878
0
ARC
5
136
100
AcDbEntity
8
0
100
AcDbCircle
10
-124.38809667083774
20
8.0664315893165863
30
0
40
4.4100000000000428
210
-0
220
0
230
1
100
AcDbArc
50
0
51
89.999999999999815
0
ARC
5
137
100
AcDbEntity
8
0
100
AcDbCircle
10
-124.18652964816935
20
72.737788881086431
30
0
40
8.2670068320829948
210
-0
220
0
230
1
100
AcDbArc
50
308.90618494129461
51
319.94206692444732
0
CIRCLE
5
138
100
AcDbEntity
8
0
100
AcDbCircle
10
-139.72124877147175
20
63.16916054974287
30
0
40
1.4750000000000016
210
0
220
0
230
1
0
ARC
5
139
100
AcDbEntity
8
0
100
AcDbCircle
10
-130.98467992802594
20
72.73778888108663
30
0
40
8.2670068320832879
210
0
220
0
230
1
100
AcDbArc
50
220.05793307555294
51
231.09381505870508
0
CIRCLE
5
140
100
AcDbEntity
8
0
100
AcDbCircle
10
-115.44996080474078
20
63.16916054974287
30
0
40
1.4749999999999996
210
0
220
0
230
1
0
ARC
5
141
100
AcDbEntity
8
0
100
AcDbCircle
10
-126.0966293755786
20
54.30153346131106
30
0
40
0.6000000000000032
210
0
220
0
230
1
100
AcDbArc
50
-15.217319492407196
51
89.994540626161665
0
CIRCLE
5
142
100
AcDbEntity
8
0
100
AcDbCircle
10
-117.5856047880977
20
23.98779606952294
30
0
40
1.4750000000000008
210
0
220
0
230
1
0
ARC
5
143
100
AcDbEntity
8
0
100
AcDbCircle
10
138.4520584164986
20
66.442410541801152
30
0
40
1.5000000000004754
210
0
220
0
230
-1
100
AcDbArc
50
88.609763892150625
51
139.45597732603312
0
ARC
5
144
100
AcDbEntity
8
0
100
AcDbCircle
10
-129.07244302426119
20
54.301817011608115
30
0
40
0.60000000000000497
210
0
220
-0
230
1
100
AcDbArc
50
90
51
195.20640063983893
0
ARC
5
145
100
AcDbEntity
8
0
100
AcDbCircle
10
138.19711588130656
20
56.768634046180686
30
0
40
11.177132468757957
210
0
220
0
230
-1
100
AcDbArc
50
63.447346111295722
51
88.506399421034786
0
ARC
5
146
100
AcDbEntity
8
0
100
AcDbCircle
10
-131.93388782142986
20
66.694086027164388
30
0
40
3.9999999999999964
210
0
220
0
230
1
100
AcDbArc
50
193.88173610023179
51
208.32126715077851
0
ARC
5
147
100
AcDbEntity
8
0
100
AcDbCircle
10
117.9780966708424
20
3.4782457443604615
30
0
40
2.0000000000001981
210
-0
220
0
230
-1
100
AcDbArc
50
-47.064130203950263
51
0
0
ARC
5
148
100
AcDbEntity
8
0
100
AcDbCircle
10
118.31540120117566
20
65.477698726893124
30
0
40
1.0700000000110168
210
0
220
0
230
-1
100
AcDbArc
50
13.881736100045122
51
50.60710711161969
0
ARC
5
149
100
AcDbEntity
8
0
100
AcDbCircle
10
115.44996080472785
20
4.8064315893029885
30
0
40
4.9999999999995444
210
0
220
0
230
-1
100
AcDbArc
50
146.12172986027107
51
226.01628430271305
0
ARC
5
150
100
AcDbEntity
8
0
100
AcDbCircle
10
136.85580837501954
20
65.477698726893124
30
0
40
1.0700000000108036
210
0
220
0
230
-1
100
AcDbArc
50
129.39289288836738
51
166.11826389977347
0
CIRCLE
5
151
100
AcDbEntity
8
0
100
AcDbCircle
10
-67.648322966266534
20
63.16916054974287
30
0
40
1.4499999999999957
210
0
220
-0
230
1
0
LINE
5
152
100
AcDbEntity
8
0
100
AcDbLine
10
-12.74086767189978
20
39.195835719584949
30
0
11
-13.000000193715096
21
39.000000581145287
31
0
0
ARC
5
153
100
AcDbEntity
8
0
100
AcDbCircle
10
-28.941314825111064
20
33.987796069496348
30
0
40
86.483621407234509
210
0
220
0
230
1
100
AcDbArc
50
162.2302124051163
51
197.76978759484675
0
ARC
5
154
100
AcDbEntity
8
0
100
AcDbCircle
10
-226.22989475108432
20
33.987796069496348
30
0
40
86.483621407234509
210
0
220
0
230
1
100
AcDbArc
50
-17.76978759484679
51
17.769787594883695
0
ENDSEC
0
SECTION
2
OBJECTS
0
DICTIONARY
5
C
100
AcDbDictionary
3
ACAD_GROUP
350
D
3
ACAD_MLINESTYLE
350
17
0
DICTIONARY
5
D
100
AcDbDictionary
0
DICTIONARY
5
1A
330
C
100
AcDbDictionary
0
DICTIONARY
5
17
100
AcDbDictionary
0
ENDSEC
0
EOF
