0
SECTION
2
HEADER
9
$INSUNITS
70
4
9
$ACADVER
1
AC1014
9
$HANDSEED
5
FFFF
0
ENDSEC
0
SECTION
2
TABLES
0
TABLE
2
VPORT
5
8
100
AcDbSymbolTable
0
ENDTAB
0
TABLE
2
LTYPE
5
5
100
AcDbSymbolTable
0
LTYPE
5
14
100
AcDbSymbolTableRecord
100
AcDbLinetypeTableRecord
2
BYBLOCK
70
0
0
LTYPE
5
15
100
AcDbSymbolTableRecord
100
AcDbLinetypeTableRecord
2
BYLAYER
70
0
0
ENDTAB
0
TABLE
2
LAYER
5
2
100
AcDbSymbolTable
70
2
0
LAYER
5
50
100
AcDbSymbolTableRecord
100
AcDbLayerTableRecord
2
0
70
0
6
CONTINUOUS
0
ENDTAB
0
TABLE
2
STYLE
5
3
100
AcDbSymbolTable
70
1
0
STYLE
5
11
100
AcDbSymbolTableRecord
100
AcDbTextStyleTableRecord
2
STANDARD
70
0
0
ENDTAB
0
TABLE
2
VIEW
5
6
100
AcDbSymbolTable
70
0
0
ENDTAB
0
TABLE
2
UCS
5
7
100
AcDbSymbolTable
70
0
0
ENDTAB
0
TABLE
2
APPID
5
9
100
AcDbSymbolTable
70
2
0
APPID
5
12
100
AcDbSymbolTableRecord
100
AcDbRegAppTableRecord
2
ACAD
70
0
0
ENDTAB
0
TABLE
2
DIMSTYLE
5
A
100
AcDbSymbolTable
70
1
0
ENDTAB
0
TABLE
2
BLOCK_RECORD
5
1
100
AcDbSymbolTable
70
1
0
BLOCK_RECORD
5
1F
100
AcDbSymbolTableRecord
100
AcDbBlockTableRecord
2
*MODEL_SPACE
0
BLOCK_RECORD
5
1B
100
AcDbSymbolTableRecord
100
AcDbBlockTableRecord
2
*PAPER_SPACE
0
ENDTAB
0
ENDSEC
0
SECTION
2
BLOCKS
0
BLOCK
5
20
100
AcDbEntity
100
AcDbBlockBegin
2
*MODEL_SPACE
0
ENDBLK
5
21
100
AcDbEntity
100
AcDbBlockEnd
0
BLOCK
5
1C
100
AcDbEntity
100
AcDbBlockBegin
2
*PAPER_SPACE
0
ENDBLK
5
1D
100
AcDbEntity
100
AcDbBlockEnd
0
ENDSEC
0
SECTION
2
ENTITIES
0
LWPOLYLINE
5
100
100
AcDbEntity
8
0
100
AcDbPolyline
90
38
70
1
43
0.0
10
-83.685884234193608
20
1.1052842744472846
42
0.14441751507078715
10
-79.783966949628379
20
0.0098999655548848153
42
0.14441751507076628
10
-75.882049665066688
20
1.1052842744436879
42
-0.10970345803746452
10
-74.248115049800646
20
1.6869539708025099
42
-0.19719945502618325
10
-70.580950882594678
20
0.75677808506136035
42
0.81399538538604987
10
-63.347764879738655
20
7.3569609745888318
42
-0.05930790466692918
10
-63.492475464943034
20
7.6862443878903619
42
-0.10052447166324316
10
-65.351748964785244
20
23.239966563099834
42
0.19791361812515365
10
-66.10965408656196
20
26.575362872052555
42
-0.087257004394190651
10
-66.70046203278909
20
27.831681043547771
42
0.028202345247150169
10
-66.807444692886151
20
28.152471227022787
42
-0.19143225048138182
10
-66.807444691246275
20
39.823120916149286
42
0.028202345129966038
10
-66.700462031427534
20
40.143911098239222
42
-0.087257004205488597
10
-66.10965408656196
20
41.400229266993307
42
0.19791361812515362
10
-65.351748964785358
20
44.73562557594601
42
-0.10077119248893096
10
-63.497038794688272
20
60.29601082458916
42
-0.056336456746126029
10
-63.359044045965419
20
60.603406825867872
42
0.81971109337704162
10
-70.619936777092406
20
67.187931154121756
42
-0.18799493382064494
10
-74.271822553436508
20
66.283650931656979
42
-0.10390304012471525
10
-75.835044247219344
20
66.81410206706316
42
0.1475804605576593
10
-79.80188850150509
20
67.964989950318383
42
0.14449223229484884
10
-83.704436837262563
20
66.881635631583251
42
-0.10975748746528924
10
-85.34025019447833
20
66.306846594500428
42
-0.18957529657131794
10
-89.007907826498013
20
67.259514697754042
42
0.8086781348403087
10
-96.218547260883099
20
60.613924444050767
42
-0.053362764049140206
10
-96.086255203721947
20
60.323355154655133
42
-0.10062336917506524
10
-94.205988063522966
20
44.735625575946031
42
0.19791361812515373
10
-93.448082941746264
20
41.400229266993307
42
-0.087257004394188029
10
-92.857274995519163
20
40.143911095498133
42
0.028202345247111172
10
-92.750292335422102
20
39.823120912023136
42
-0.19143225048138665
10
-92.750292337062035
20
28.152471222896374
42
0.028202345130131413
10
-92.857274996880719
20
27.831681040806497
42
-0.087257004205479813
10
-93.448082941746264
20
26.575362872052555
42
0.19791361812515379
10
-94.205988063522966
20
23.239966563099827
42
-0.10061519791888357
10
-96.076185992434063
20
7.6966737308440445
42
-0.058441821305553011
10
-96.21058700793769
20
7.3730488814373452
42
0.81555319479580313
10
-88.986983016666272
20
0.75677808506999344
42
-0.19900288019478862
10
-85.319818849458784
20
1.6869539708074921
42
-0.10970345803742602
0
LWPOLYLINE
5
101
100
AcDbEntity
8
0
100
AcDbPolyline
90
8
70
1
43
0.0
10
-84.590007708827869
20
16.221638767356783
42
-0.99999999999999989
10
-83.833403452958564
20
16.978243023225897
10
-75.734530446348472
20
16.978243023225897
42
-0.99999999999999989
10
-74.97792619047928
20
16.221638767356783
10
-74.977926190479266
20
15.638847279094865
42
-0.99999999999999989
10
-75.734530446348472
20
14.882243023225774
10
-83.833403452958564
20
14.882243023225774
42
-0.99999999999999989
10
-84.590007708827869
20
15.638847279094863
0
LWPOLYLINE
5
102
100
AcDbEntity
8
0
100
AcDbPolyline
90
8
70
1
43
0.0
10
-84.590007708806354
20
52.336744859950969
42
-0.99999999999999989
10
-83.833403452937148
20
53.093349115820004
10
-75.734530446327028
20
53.093349115820004
42
-0.99999999999999989
10
-74.977926190457808
20
52.336744859950969
10
-74.977926190457808
20
51.753953371689185
42
-0.99999999999999989
10
-75.734530446327028
20
50.997349115820057
10
-83.833403452937148
20
50.997349115820057
42
-0.9999999925494194
10
-84.590007708806354
20
51.753953371689185
0
LWPOLYLINE
5
103
100
AcDbEntity
8
0
100
AcDbPolyline
90
8
70
1
43
0.0
10
-74.977926190457808
20
16.22163876735668
10
-74.977926190457808
20
15.638847279094893
42
-0.99999999999999989
10
-75.734530446327028
20
14.882243023225858
10
-83.833403452937148
20
14.882243023225858
42
-0.99999999999999989
10
-84.590007708806354
20
15.638847279094893
10
-84.590007708806354
20
16.22163876735668
42
-0.9999999925494194
10
-83.833403452937148
20
16.978243023225804
10
-75.734530446327028
20
16.978243023225804
42
-0.99999999999999989
0
CIRCLE
5
104
100
AcDbEntity
8
0
100
AcDbCircle
10
-67.648322966266534
20
63.16916054974287
30
0
40
1.4499999999999957
210
0
220
0
230
1
0
CIRCLE
5
105
100
AcDbEntity
8
0
100
AcDbCircle
10
-91.919610932997585
20
63.16916054974287
30
0
40
1.4499999999999946
210
0
220
0
230
1
0
CIRCLE
5
106
100
AcDbEntity
8
0
100
AcDbCircle
10
-91.919610932997585
20
4.8064315893030019
30
0
40
1.4499999999999957
210
0
220
0
230
1
0
CIRCLE
5
107
100
AcDbEntity
8
0
100
AcDbCircle
10
-67.648322966266534
20
4.8064315893030019
30
0
40
1.4500000000000002
210
0
220
0
230
1
0
CIRCLE
5
108
100
AcDbEntity
8
0
100
AcDbCircle
10
-79.778868514154112
20
7.4460724535722855
30
0
40
1.4500000000000028
210
0
220
0
230
1
0
CIRCLE
5
109
100
AcDbEntity
8
0
100
AcDbCircle
10
-89.778868514154041
20
43.987796069522943
30
0
40
1.5000000000000036
210
0
220
0
230
1
0
CIRCLE
5
110
100
AcDbEntity
8
0
100
AcDbCircle
10
-69.778868514154169
20
43.987796069522943
30
0
40
1.5000000000000036
210
0
220
0
230
1
0
CIRCLE
5
111
100
AcDbEntity
8
0
100
AcDbCircle
10
-89.778868514154055
20
23.987796069522926
30
0
40
1.4999999999999989
210
0
220
0
230
1
0
CIRCLE
5
112
100
AcDbEntity
8
0
100
AcDbCircle
10
-69.778868514154169
20
23.987796069522926
30
0
40
1.500000000000004
210
0
220
0
230
1
0
CIRCLE
5
113
100
AcDbEntity
8
0
100
AcDbCircle
10
-79.778868514154112
20
60.529519685473581
30
0
40
1.4499999999999993
210
0
220
0
230
1
0
ENDSEC
0
SECTION
2
OBJECTS
0
DICTIONARY
5
C
100
AcDbDictionary
3
ACAD_GROUP
350
D
3
ACAD_MLINESTYLE
350
17
0
DICTIONARY
5
D
100
AcDbDictionary
0
DICTIONARY
5
1A
330
C
100
AcDbDictionary
0
DICTIONARY
5
17
100
AcDbDictionary
0
ENDSEC
0
EOF
