0
SECTION
2
HEADER
9
$INSUNITS
70
4
9
$ACADVER
1
AC1014
9
$HANDSEED
5
FFFF
0
ENDSEC
0
SECTION
2
TABLES
0
TABLE
2
VPORT
5
8
100
AcDbSymbolTable
0
ENDTAB
0
TABLE
2
LTYPE
5
5
100
AcDbSymbolTable
0
LTYPE
5
14
100
AcDbSymbolTableRecord
100
AcDbLinetypeTableRecord
2
BYBLOCK
70
0
0
LTYPE
5
15
100
AcDbSymbolTableRecord
100
AcDbLinetypeTableRecord
2
BYLAYER
70
0
0
ENDTAB
0
TABLE
2
LAYER
5
2
100
AcDbSymbolTable
70
2
0
LAYER
5
50
100
AcDbSymbolTableRecord
100
AcDbLayerTableRecord
2
0
70
0
6
CONTINUOUS
0
ENDTAB
0
TABLE
2
STYLE
5
3
100
AcDbSymbolTable
70
1
0
STYLE
5
11
100
AcDbSymbolTableRecord
100
AcDbTextStyleTableRecord
2
STANDARD
70
0
0
ENDTAB
0
TABLE
2
VIEW
5
6
100
AcDbSymbolTable
70
0
0
ENDTAB
0
TABLE
2
UCS
5
7
100
AcDbSymbolTable
70
0
0
ENDTAB
0
TABLE
2
APPID
5
9
100
AcDbSymbolTable
70
2
0
APPID
5
12
100
AcDbSymbolTableRecord
100
AcDbRegAppTableRecord
2
ACAD
70
0
0
ENDTAB
0
TABLE
2
DIMSTYLE
5
A
100
AcDbSymbolTable
70
1
0
ENDTAB
0
TABLE
2
BLOCK_RECORD
5
1
100
AcDbSymbolTable
70
1
0
BLOCK_RECORD
5
1F
100
AcDbSymbolTableRecord
100
AcDbBlockTableRecord
2
*MODEL_SPACE
0
BLOCK_RECORD
5
1B
100
AcDbSymbolTableRecord
100
AcDbBlockTableRecord
2
*PAPER_SPACE
0
ENDTAB
0
ENDSEC
0
SECTION
2
BLOCKS
0
BLOCK
5
20
100
AcDbEntity
100
AcDbBlockBegin
2
*MODEL_SPACE
0
ENDBLK
5
21
100
AcDbEntity
100
AcDbBlockEnd
0
BLOCK
5
1C
100
AcDbEntity
100
AcDbBlockBegin
2
*PAPER_SPACE
0
ENDBLK
5
1D
100
AcDbEntity
100
AcDbBlockEnd
0
ENDSEC
0
SECTION
2
ENTITIES
0
LWPOLYLINE
5
100
100
AcDbEntity
8
0
100
AcDbPolyline
90
8
70
1
43
0.0
10
5.0841996385732013
20
-12.025640958764773
10
13.183072645183302
20
-12.025640958764773
42
-0.99999999999999989
10
13.939676901052497
20
-12.782245214633887
10
13.939676901052502
20
-13.365036702895805
42
-0.99999999999999989
10
13.183072645183305
20
-14.121640958764896
10
5.0841996385732013
20
-14.121640958764896
42
-0.99999999999999989
10
4.3275953827039126
20
-13.365036702895807
10
4.3275953827039126
20
-12.782245214633887
42
-0.99999999999999989
0
CIRCLE
5
101
100
AcDbEntity
8
0
100
AcDbCircle
10
9.1387345773776651
20
-21.557811528418384
30
0
40
1.4499999999999931
210
0
220
0
230
1
0
CIRCLE
5
102
100
AcDbEntity
8
0
100
AcDbCircle
10
9.1387345774216868
20
25.937635703449136
30
0
40
1.4499999999999931
210
0
220
0
230
1
0
LWPOLYLINE
5
103
100
AcDbEntity
8
0
100
AcDbPolyline
90
8
70
1
43
0.0
10
13.939676901117885
20
17.162069389674063
42
-0.9999999925494194
10
13.183072645248679
20
16.405465133805102
10
5.084199638638589
20
16.405465133805087
42
-1.0000000074505806
10
4.3275953827693003
20
17.162069389674066
10
4.3275953827693003
20
17.744860877935658
42
-0.9999999925494194
10
5.084199638638589
20
18.501465133805066
10
13.183072645248689
20
18.501465133805066
42
-0.99999999999999989
10
13.93967690111789
20
17.744860877935658
0
ARC
5
104
100
AcDbEntity
8
0
100
AcDbCircle
10
-3.1214161364477224
20
35.670458905631833
30
0
40
3.9968719848616967
210
0
220
-0
230
-1
100
AcDbArc
50
238.11250156567127
51
263.16677877394977
0
CIRCLE
5
105
100
AcDbEntity
8
0
100
AcDbCircle
10
21.269280125311397
20
28.577276567736885
30
0
40
1.45
210
0
220
0
230
1
0
ARC
5
106
100
AcDbEntity
8
0
100
AcDbCircle
10
9.2279319780413473
20
-21.832590500648315
30
0
40
7.1620142971566167
210
0
220
0
230
1
100
AcDbArc
50
269.24561592373033
51
302.11640727549207
0
CIRCLE
5
107
100
AcDbEntity
8
0
100
AcDbCircle
10
21.269280125265194
20
-24.197452392687797
30
0
40
1.45
210
0
220
0
230
1
0
ARC
5
108
100
AcDbEntity
8
0
100
AcDbCircle
10
-15.16211798802054
20
-31.286478566882508
30
0
40
3.9999999999995217
210
0
220
0
230
-1
100
AcDbArc
50
57.883592724522742
51
82.925634622704749
0
ARC
5
109
100
AcDbEntity
8
0
100
AcDbCircle
10
-15.369695346819313
20
-32.250281902304181
30
0
40
4.9827955157398209
210
0
220
0
230
-1
100
AcDbArc
50
81.921773539718984
51
126.5440208070892
0
CIRCLE
5
110
100
AcDbEntity
8
0
100
AcDbCircle
10
-3.0020078414219276
20
28.577276567727786
30
0
40
1.45
210
0
220
0
230
1
0
CIRCLE
5
111
100
AcDbEntity
8
0
100
AcDbCircle
10
-3.0020078414658147
20
-24.197452392687797
30
0
40
1.45
210
0
220
0
230
1
0
ARC
5
112
100
AcDbEntity
8
0
100
AcDbCircle
10
-2.8864709961455604
20
-32.20649737843209
30
0
40
4.9410358805312518
210
0
220
0
230
-1
100
AcDbArc
50
53.257125755793822
51
98.277079897516444
0
ARC
5
113
100
AcDbEntity
8
0
100
AcDbCircle
10
21.288889952028605
20
28.564291903805955
30
0
40
4.9981002218560864
210
-0
220
0
230
1
100
AcDbArc
50
-30.886949480152193
51
126.48046409793662
0
ARC
5
114
100
AcDbEntity
8
0
100
AcDbCircle
10
-0.85643864677429671
20
12.188395577187205
30
0
40
4.4898370209932557
210
0
220
0
230
1
100
AcDbArc
50
171.82424184237203
51
215.19187417802385
0
ARC
5
115
100
AcDbEntity
8
0
100
AcDbCircle
10
-2.9650896647530312
20
28.560478726630659
30
0
40
5.0139532400461881
210
0
220
-0
230
1
100
AcDbArc
50
54.741383197706256
51
210.58822582117324
0
ARC
5
116
100
AcDbEntity
8
0
100
AcDbCircle
10
9.0393403057694819
20
-21.832590500641523
30
0
40
7.1620142971633545
210
0
220
0
230
1
100
AcDbArc
50
237.88359272447013
51
270.75438407623653
0
ARC
5
117
100
AcDbEntity
8
0
100
AcDbCircle
10
-3.0020078414658258
20
-24.197452392687751
30
0
40
4.999999999999182
210
0
220
0
230
1
100
AcDbArc
50
149.11454168357707
51
305.91083874491102
0
ARC
5
118
100
AcDbEntity
8
0
100
AcDbCircle
10
-15.331300576755611
20
36.815650344388324
30
0
40
5.179850370681863
210
0
220
-0
230
-1
100
AcDbArc
50
234.79807213792316
51
277.3862615320225
0
ARC
5
119
100
AcDbEntity
8
0
100
AcDbCircle
10
-3.1051542957795464
20
-31.28647856687758
30
0
40
4.0000000000000737
210
0
220
0
230
-1
100
AcDbArc
50
97.074365377352322
51
122.11640727552576
0
ARC
5
120
100
AcDbEntity
8
0
100
AcDbCircle
10
-2.9743022114267665
20
36.841164317027449
30
0
40
5.1767695180967195
210
0
220
-0
230
-1
100
AcDbArc
50
263.09175233069135
51
306.02966987659363
0
ARC
5
121
100
AcDbEntity
8
0
100
AcDbCircle
10
7.802320031065757
20
7.2928341681709554
30
0
40
4.0079153494923077
210
0
220
0
230
-1
100
AcDbArc
50
144.84018087677094
51
166.97799250952286
0
ARC
5
122
100
AcDbEntity
8
0
100
AcDbCircle
10
21.269280125311411
20
-24.197452392680468
30
0
40
5.0000000000372866
210
0
220
0
230
1
100
AcDbArc
50
-125.91083874520297
51
30.670882416360538
0
ARC
5
123
100
AcDbEntity
8
0
100
AcDbCircle
10
9.0193323689176221
20
26.207239427209011
30
0
40
7.1538222862992518
210
0
220
-0
230
1
100
AcDbArc
50
89.070965735401103
51
121.95853098900203
0
ARC
5
124
100
AcDbEntity
8
0
100
AcDbCircle
10
-15.146313482959759
20
35.664653076856787
30
0
40
4.0147793225980646
210
-0
220
0
230
-1
100
AcDbArc
50
276.87987815061535
51
300.60755853942544
0
ARC
5
125
100
AcDbEntity
8
0
100
AcDbCircle
10
9.2116147499924743
20
26.211235319415643
30
0
40
7.1492930448388368
210
0
220
-0
230
1
100
AcDbArc
50
57.030861289783196
51
90.611416687511735
0
ARC
5
126
100
AcDbEntity
8
0
100
AcDbCircle
10
19.144427103766059
20
12.181993731502931
30
0
40
4.4898370207769753
210
0
220
0
230
1
100
AcDbArc
50
-35.22855246433938
51
7.4302999590729559
0
ARC
5
127
100
AcDbEntity
8
0
100
AcDbCircle
10
-26.087173137830394
20
7.2819868724159917
30
0
40
4.0079153488929267
210
0
220
0
230
-1
100
AcDbArc
50
13.058685774987095
51
35.196497407949188
0
ARC
5
128
100
AcDbEntity
8
0
100
AcDbCircle
10
-44.507588849692937
20
13.784011161140924
30
0
40
39.218626441743503
210
0
220
0
230
1
100
AcDbArc
50
-1.3984198726857306
51
17.690494399696522
0
ARC
5
129
100
AcDbEntity
8
0
100
AcDbCircle
10
-8.5726042665299431
20
25.245759011932645
30
0
40
1.5000000000724909
210
0
220
-0
230
1
100
AcDbArc
50
17.69049440011565
51
30.588225822038126
0
ARC
5
130
100
AcDbEntity
8
0
100
AcDbCircle
10
26.868949901986596
20
25.234414934979018
30
0
40
1.499999999999323
210
0
220
0
230
1
100
AcDbArc
50
149.37509589283135
51
162.27282731475151
0
ARC
5
131
100
AcDbEntity
8
0
100
AcDbCircle
10
62.796589806787289
20
13.749665407992191
30
0
40
39.21862644415468
210
0
220
0
230
1
100
AcDbArc
50
162.27282731522621
51
181.26990642641425
0
ARC
5
132
100
AcDbEntity
8
0
100
AcDbCircle
10
26.880625624166768
20
-20.874429881053423
30
0
40
1.5214825896778326
210
0
220
0
230
1
100
AcDbArc
50
196.93587338345324
51
210.51234072346347
0
ARC
5
133
100
AcDbEntity
8
0
100
AcDbCircle
10
62.78918007250077
20
-9.4000792337442824
30
0
40
39.218626441744256
210
0
220
0
230
1
100
AcDbArc
50
178.69341525891278
51
197.69049439966074
0
ARC
5
134
100
AcDbEntity
8
0
100
AcDbCircle
10
19.138029869586891
20
-7.8044636497632993
30
0
40
4.4898370209932539
210
0
220
0
230
1
100
AcDbArc
50
-7.466978042418476
51
35.191874177943831
0
ARC
5
135
100
AcDbEntity
8
0
100
AcDbCircle
10
-26.083911253881404
20
-2.9089022407513827
30
0
40
4.007915349492305
210
-0
220
0
230
-1
100
AcDbArc
50
324.84018087675702
51
346.97799250955853
0
ARC
5
136
100
AcDbEntity
8
0
100
AcDbCircle
10
24.680464650150977
20
-8.5308895747596374
30
0
40
1.1000000000041616
210
0
220
0
230
1
100
AcDbArc
50
172.53302195758667
51
178.69341525889465
0
ARC
5
137
100
AcDbEntity
8
0
100
AcDbCircle
10
24.68732577242519
20
12.904871499857659
30
0
40
1.1000000000139387
210
0
220
0
230
1
100
AcDbArc
50
181.26990642643463
51
187.43029995901506
0
ARC
5
138
100
AcDbEntity
8
0
100
AcDbCircle
10
-8.6054440645417714
20
-20.896051244448294
30
0
40
1.5041472519794532
210
-0
220
0
230
1
100
AcDbArc
50
330.75761557339371
51
344.13627688538872
0
ARC
5
139
100
AcDbEntity
8
0
100
AcDbCircle
10
-44.51499858363637
20
-9.3657334805635539
30
0
40
39.218626443612173
210
0
220
0
230
1
100
AcDbArc
50
-17.727172684865206
51
1.3617415875170589
0
ARC
5
140
100
AcDbEntity
8
0
100
AcDbCircle
10
-0.86283588069452799
20
-7.7980618040276095
30
0
40
4.4898370207841944
210
0
220
0
230
1
100
AcDbArc
50
144.77144753680744
51
188.13907987245932
0
ARC
5
141
100
AcDbEntity
8
0
100
AcDbCircle
10
7.8055819148637813
20
-2.8980549449382362
30
0
40
4.0079153488977539
210
0
220
0
230
-1
100
AcDbArc
50
193.05868577564578
51
215.19649740839773
0
ARC
5
142
100
AcDbEntity
8
0
100
AcDbCircle
10
43.402250628401347
20
2.1809996106871399
30
0
40
22.053106169350279
210
0
220
0
230
1
100
AcDbArc
50
164.19474470988197
51
195.76857700355691
0
ARC
5
143
100
AcDbEntity
8
0
100
AcDbCircle
10
-25.120659405586501
20
2.2029323161565957
30
0
40
22.053106169350368
210
0
220
0
230
1
100
AcDbArc
50
-15.805255288619994
51
15.768577005054981
0
CIRCLE
5
144
100
AcDbEntity
8
0
100
AcDbCircle
10
-0.85643864677429671
20
12.188395577187205
30
0
40
1.5000000000000002
210
0
220
0
230
1
0
CIRCLE
5
145
100
AcDbEntity
8
0
100
AcDbCircle
10
-0.86283588069452799
20
-7.7980618040276095
30
0
40
1.5000000000000002
210
0
220
0
230
1
0
CIRCLE
5
146
100
AcDbEntity
8
0
100
AcDbCircle
10
19.144427103766059
20
12.181993731502931
30
0
40
1.5000000000000013
210
0
220
0
230
1
0
CIRCLE
5
147
100
AcDbEntity
8
0
100
AcDbCircle
10
19.138029869586891
20
-7.8044636497632993
30
0
40
1.5000000000000013
210
0
220
0
230
1
0
ENDSEC
0
SECTION
2
OBJECTS
0
DICTIONARY
5
C
100
AcDbDictionary
3
ACAD_GROUP
350
D
3
ACAD_MLINESTYLE
350
17
0
DICTIONARY
5
D
100
AcDbDictionary
0
DICTIONARY
5
1A
330
C
100
AcDbDictionary
0
DICTIONARY
5
17
100
AcDbDictionary
0
ENDSEC
0
EOF
